<svg width="16" height="16" viewBox="0 0 16 16" xmlns="http://www.w3.org/2000/svg">
<path fill-rule="evenodd" clip-rule="evenodd" d="M7.99999 1.99984C4.68628 1.99984 1.99999 4.68613 1.99999 7.99984C1.99999 11.3135 4.68628 13.9998 7.99999 13.9998C11.3137 13.9998 14 11.3135 14 7.99984C14 4.68613 11.3137 1.99984 7.99999 1.99984ZM0.666656 7.99984C0.666656 3.94975 3.9499 0.666504 7.99999 0.666504C12.0501 0.666504 15.3333 3.94975 15.3333 7.99984C15.3333 12.0499 12.0501 15.3332 7.99999 15.3332C3.9499 15.3332 0.666656 12.0499 0.666656 7.99984Z"/>
<path fill-rule="evenodd" clip-rule="evenodd" d="M7.99999 4.6665C8.36818 4.6665 8.66666 4.96498 8.66666 5.33317V10.6665C8.66666 11.0347 8.36818 11.3332 7.99999 11.3332C7.6318 11.3332 7.33332 11.0347 7.33332 10.6665V5.33317C7.33332 4.96498 7.6318 4.6665 7.99999 4.6665Z"/>
<path fill-rule="evenodd" clip-rule="evenodd" d="M4.66666 7.99984C4.66666 7.63165 4.96513 7.33317 5.33332 7.33317H10.6667C11.0348 7.33317 11.3333 7.63165 11.3333 7.99984C11.3333 8.36803 11.0348 8.6665 10.6667 8.6665H5.33332C4.96513 8.6665 4.66666 8.36803 4.66666 7.99984Z"/>
</svg>
