<svg width="16" height="16" viewBox="0 0 16 16" fill="none" xmlns="http://www.w3.org/2000/svg">
<path d="M8.00008 4.66669C8.36827 4.66669 8.66675 4.96516 8.66675 5.33335V8.00002C8.66675 8.36821 8.36827 8.66669 8.00008 8.66669C7.63189 8.66669 7.33341 8.36821 7.33341 8.00002V5.33335C7.33341 4.96516 7.63189 4.66669 8.00008 4.66669Z"/>
<path d="M8.00008 10C7.63189 10 7.33341 10.2985 7.33341 10.6667C7.33341 11.0349 7.63189 11.3334 8.00008 11.3334H8.00675C8.37494 11.3334 8.67341 11.0349 8.67341 10.6667C8.67341 10.2985 8.37494 10 8.00675 10H8.00008Z"/>
<path fill-rule="evenodd" clip-rule="evenodd" d="M4.76868 0.861949C4.8937 0.736925 5.06327 0.666687 5.24008 0.666687H10.7601C10.9369 0.666687 11.1065 0.736925 11.2315 0.861949L15.1382 4.76862C15.2632 4.89364 15.3334 5.06321 15.3334 5.24002V10.76C15.3334 10.9368 15.2632 11.1064 15.1382 11.2314L11.2315 15.1381C11.1065 15.2631 10.9369 15.3334 10.7601 15.3334H5.24008C5.06327 15.3334 4.8937 15.2631 4.76868 15.1381L0.86201 11.2314C0.736986 11.1064 0.666748 10.9368 0.666748 10.76V5.24002C0.666748 5.06321 0.736986 4.89364 0.86201 4.76862L4.76868 0.861949ZM5.51622 2.00002L2.00008 5.51616V10.4839L5.51622 14H10.4839L14.0001 10.4839V5.51616L10.4839 2.00002H5.51622Z"/>
</svg>
