<svg width="522" height="522" viewBox="0 0 522 522" fill="none" xmlns="http://www.w3.org/2000/svg">
<g opacity="0.3" filter="url(#filter0_f_403:4736)">
<circle cx="261" cy="261" r="160" transform="rotate(-15 261 261)" fill="url(#paint0_linear_403:4736)" fill-opacity="0.7"/>
</g>
<circle cx="261" cy="261" r="68.5" transform="rotate(-15 261 261)" stroke="white" stroke-opacity="0.08"/>
<circle cx="261" cy="261.001" r="149.5" transform="rotate(-15 261 261.001)" stroke="white" stroke-opacity="0.08"/>
<circle cx="261" cy="261" r="119.5" transform="rotate(-15 261 261)" stroke="white" stroke-opacity="0.06"/>
<path d="M224.714 228.118C224.425 229.707 225.436 231.44 227.025 231.729C227.314 231.729 227.458 231.729 227.747 231.729C229.191 231.729 230.491 230.718 230.78 229.273C231.647 225.084 229.336 221.618 227.458 219.162C226.158 217.429 224.714 215.696 222.98 214.396C221.536 213.24 219.947 212.374 218.503 211.651C217.636 211.218 216.914 210.785 216.191 210.351C214.891 209.485 213.158 208.04 212.725 205.729C212.58 205.007 212.725 204.429 212.725 204.285C213.591 202.84 213.158 200.963 211.858 200.096C210.414 199.229 208.536 199.518 207.669 200.963C206.369 202.985 206.514 205.585 206.803 206.885C207.525 210.351 209.692 213.529 213.014 215.551C214.025 216.129 214.891 216.707 215.903 217.14C217.203 217.718 218.358 218.296 219.225 219.162C220.38 220.173 221.536 221.618 222.691 222.918C223.702 224.507 225.147 226.529 224.714 228.118Z" fill="#50B9A6"/>
<path d="M258.658 235.63C258.802 235.63 258.946 235.63 259.091 235.63C260.68 235.341 262.558 235.196 264.435 234.33C266.891 233.174 268.624 231.296 269.202 228.985C269.924 226.096 268.769 223.641 267.902 221.619C267.613 221.041 267.469 220.607 267.18 220.03C265.735 216.274 267.613 211.508 271.224 209.63C272.669 208.908 273.391 207.03 272.524 205.441C271.802 203.997 269.924 203.274 268.335 204.141C261.98 207.319 258.802 215.408 261.402 222.196C261.691 222.919 261.98 223.496 262.269 224.219C262.846 225.519 263.424 226.674 263.28 227.396C263.135 227.83 262.558 228.407 261.98 228.696C260.969 229.13 259.669 229.274 258.369 229.563C256.635 229.852 255.48 231.296 255.769 233.03C255.769 234.618 257.069 235.63 258.658 235.63Z" fill="#5617EF"/>
<path d="M302.279 226.096C300.835 225.229 298.957 225.663 298.09 227.107C297.079 228.696 294.768 229.418 292.313 230.285L291.302 230.574C284.513 232.885 278.302 237.073 273.391 242.273C268.913 240.829 263.28 239.529 256.058 238.085C252.88 237.507 249.991 236.929 247.247 236.64C245.369 229.707 242.48 223.063 238.725 217.14L238.58 216.852C237.136 214.54 235.547 212.085 235.98 210.207C236.413 208.618 235.402 206.885 233.669 206.452C232.08 206.018 230.347 207.029 229.914 208.763C228.758 213.24 231.358 217.14 233.236 220.174L233.38 220.463C236.413 225.229 238.725 230.429 240.458 235.918C225.58 234.474 221.391 237.218 220.814 240.107C220.814 240.251 220.814 240.54 220.814 240.685C220.814 240.829 220.814 240.973 220.814 241.118V241.262C220.814 241.84 220.958 242.273 221.247 242.851L241.18 315.506L286.391 255.273C286.968 254.84 287.402 254.118 287.691 253.395C287.691 253.251 287.835 252.962 287.835 252.818C288.268 250.507 286.679 247.618 279.746 244.584C283.646 240.973 288.268 238.085 293.324 236.351L294.335 236.062C297.368 235.051 301.124 233.751 303.29 230.285C304.157 228.84 303.724 226.962 302.279 226.096ZM254.902 244.151C260.824 245.307 265.88 246.607 269.924 247.762C270.069 248.629 270.357 249.351 271.08 249.929C271.657 250.362 272.235 250.507 272.957 250.507C273.824 250.507 274.691 250.073 275.269 249.496C276.857 250.073 278.157 250.651 279.168 251.084C274.691 251.373 266.169 250.94 254.035 248.629C252.447 248.34 250.858 248.051 249.413 247.618C249.269 246.029 248.98 244.44 248.836 242.851C250.713 243.429 252.735 243.718 254.902 244.151ZM242.336 242.273C242.624 243.573 242.769 245.018 243.058 246.318C236.847 244.729 232.514 242.996 229.914 241.696C232.514 241.551 236.702 241.551 242.336 242.273ZM243.78 301.784L229.336 248.196C229.914 248.484 230.491 248.629 231.214 248.918C236.847 251.084 244.647 253.107 252.88 254.695C261.113 256.284 269.057 257.151 275.124 257.295C275.557 257.295 275.991 257.295 276.28 257.295C276.568 257.295 276.857 257.295 277.002 257.295L243.78 301.784Z" fill="url(#paint1_linear_403:4736)"/>
<path d="M273.391 225.663C273.824 226.818 274.98 227.541 276.28 227.541C276.713 227.541 277.002 227.541 277.435 227.396C282.057 225.663 285.957 222.341 288.413 218.007C290.146 215.119 291.013 212.085 292.024 209.052C292.602 207.174 293.179 205.441 293.757 203.852C295.057 200.53 297.946 196.774 301.557 196.63C303.29 196.63 304.59 195.186 304.59 193.452C304.59 191.719 303.146 190.419 301.413 190.419C294.913 190.563 290.291 196.197 288.124 201.397C287.257 203.274 286.679 205.297 286.102 207.174C285.235 209.919 284.513 212.519 283.068 214.83C281.335 217.863 278.446 220.319 275.124 221.619C273.535 222.341 272.669 224.074 273.391 225.663Z" fill="#ED4D4D"/>
<path d="M249.558 200.241C251.435 200.241 252.88 198.797 252.88 196.919C252.88 195.041 251.435 193.597 249.558 193.597C247.68 193.597 246.236 195.041 246.236 196.919C246.236 198.797 247.824 200.241 249.558 200.241Z" fill="#F78101"/>
<path d="M272.38 191.43C273.824 192.585 275.846 192.296 277.146 190.996C278.302 189.552 278.013 187.53 276.713 186.23C275.268 185.074 273.246 185.363 271.946 186.663C270.646 188.252 270.935 190.274 272.38 191.43Z" fill="#F78101"/>
<path d="M224.28 195.474C226.158 195.329 227.602 193.885 227.458 192.007C227.314 190.129 225.869 188.685 223.991 188.829C222.114 188.974 220.669 190.418 220.814 192.296C220.814 194.174 222.402 195.618 224.28 195.474Z" fill="#5617EF"/>
<path d="M306.179 209.341C304.301 209.485 302.857 211.074 303.001 212.952C303.146 214.83 304.59 216.274 306.468 216.13C308.346 215.985 309.79 214.541 309.646 212.663C309.501 210.785 307.913 209.341 306.179 209.341Z" fill="#50B9A6"/>
<defs>
<filter id="filter0_f_403:4736" x="0.960266" y="0.960938" width="520.079" height="520.079" filterUnits="userSpaceOnUse" color-interpolation-filters="sRGB">
<feFlood flood-opacity="0" result="BackgroundImageFix"/>
<feBlend mode="normal" in="SourceGraphic" in2="BackgroundImageFix" result="shape"/>
<feGaussianBlur stdDeviation="50" result="effect1_foregroundBlur_403:4736"/>
</filter>
<linearGradient id="paint0_linear_403:4736" x1="142.481" y1="138.531" x2="377.543" y2="408.161" gradientUnits="userSpaceOnUse">
<stop stop-color="#0043EF"/>
<stop offset="1" stop-color="#AD00FF"/>
</linearGradient>
<linearGradient id="paint1_linear_403:4736" x1="309.972" y1="206.352" x2="309.972" y2="315.506" gradientUnits="userSpaceOnUse">
<stop stop-color="#F76800"/>
<stop offset="1" stop-color="#F7A600"/>
</linearGradient>
</defs>
</svg>
