<svg width="16" height="15" viewBox="0 0 16 15" fill="none" xmlns="http://www.w3.org/2000/svg">
<path fill-rule="evenodd" clip-rule="evenodd" d="M12.6667 1.61458C12.5066 1.61458 12.3481 1.64611 12.2002 1.70737C12.0523 1.76863 11.9179 1.85842 11.8047 1.97161L2.92993 10.8464L2.28348 13.2167L4.65379 12.5703L13.5286 3.69546C13.6418 3.58227 13.7316 3.4479 13.7928 3.30001C13.8541 3.15212 13.8856 2.99361 13.8856 2.83353C13.8856 2.67346 13.8541 2.51495 13.7928 2.36706C13.7316 2.21917 13.6418 2.0848 13.5286 1.97161C13.4154 1.85842 13.281 1.76863 13.1331 1.70737C12.9853 1.64611 12.8267 1.61458 12.6667 1.61458ZM11.69 0.475531C11.9996 0.347267 12.3315 0.28125 12.6667 0.28125C13.0018 0.28125 13.3337 0.347267 13.6434 0.475531C13.953 0.603795 14.2344 0.791795 14.4714 1.0288C14.7084 1.2658 14.8964 1.54716 15.0247 1.85682C15.1529 2.16648 15.219 2.49837 15.219 2.83353C15.219 3.1687 15.1529 3.50059 15.0247 3.81025C14.8964 4.11991 14.7084 4.40127 14.4714 4.63827L5.47141 13.6383C5.38937 13.7203 5.28735 13.7795 5.17542 13.81L1.50875 14.81C1.27794 14.873 1.0311 14.8074 0.861934 14.6383C0.692767 14.4691 0.627215 14.2223 0.690163 13.9915L1.69016 10.3248C1.72069 10.2129 1.7799 10.1108 1.86193 10.0288L10.8619 1.0288C11.0989 0.791795 11.3803 0.603795 11.69 0.475531Z" fill="#F7A600"/>
</svg>
