<svg width="375" height="480" viewBox="0 0 375 480" fill="none" xmlns="http://www.w3.org/2000/svg">
<g opacity="0.3" filter="url(#filter0_f_511:4930)">
<circle cx="188" cy="220" r="160" fill="url(#paint0_linear_511:4930)" fill-opacity="0.7"/>
</g>
<g clip-path="url(#clip0_511:4930)">
<path d="M181.516 199.979L168.918 201.885C167.907 202.08 166.866 202.026 165.877 201.727C164.888 201.429 163.977 200.893 163.214 200.161C162.451 199.429 161.856 198.522 161.476 197.508C161.096 196.494 160.94 195.4 161.021 194.312V191.048C161.168 188.612 162.083 186.299 163.617 184.48C165.152 182.662 167.219 181.444 169.484 181.021L182.082 179.115C183.093 178.92 184.134 178.974 185.123 179.273C186.112 179.571 187.023 180.107 187.786 180.839C188.549 181.571 189.144 182.478 189.524 183.492C189.904 184.506 190.06 185.6 189.979 186.688V189.952C189.836 192.39 188.923 194.705 187.387 196.524C185.852 198.344 183.783 199.561 181.516 199.979Z" fill="url(#paint1_linear_511:4930)"/>
<path d="M174.32 190.568C174.355 189.391 174.421 188.287 173.628 187.576C173.079 187.082 172.434 186.865 171.486 186.996C170.538 187.127 169.875 187.525 169.291 188.175C168.449 189.113 168.449 190.208 168.414 191.384C168.378 192.561 168.313 193.665 169.105 194.377C169.655 194.87 170.299 195.087 171.247 194.956C172.195 194.825 172.858 194.427 173.442 193.777C174.284 192.839 174.284 191.744 174.32 190.568ZM172.413 190.831C172.37 192.261 172.253 192.529 172.072 192.784C171.925 192.99 171.647 193.193 171.299 193.241C170.95 193.289 170.683 193.162 170.547 192.995C170.379 192.788 170.278 192.55 170.321 191.121C170.364 189.691 170.48 189.412 170.662 189.157C170.809 188.951 171.086 188.759 171.435 188.711C171.783 188.663 172.051 188.779 172.187 188.946C172.355 189.153 172.456 189.402 172.413 190.831ZM181.575 193.462L181.81 185.634L179.903 185.898L179.785 189.834L177.419 186.241L175.752 186.472L175.517 194.3L177.424 194.036L177.542 190.1L179.908 193.693L181.575 193.462Z" fill="white"/>
<path d="M213.797 193.641L202.511 195.108C201.574 195.24 200.619 195.16 199.717 194.872C198.815 194.584 197.99 194.097 197.302 193.446C196.614 192.795 196.082 191.998 195.745 191.113C195.408 190.229 195.275 189.28 195.356 188.336V185.447C195.425 183.335 196.223 181.311 197.613 179.719C199.003 178.127 200.901 177.065 202.985 176.712L214.271 175.245C215.208 175.117 216.161 175.2 217.061 175.49C217.961 175.779 218.784 176.266 219.471 176.916C220.158 177.566 220.69 178.361 221.028 179.244C221.366 180.127 221.503 181.074 221.426 182.016V184.905C221.383 187.026 220.595 189.063 219.2 190.66C217.805 192.257 215.892 193.312 213.797 193.641Z" stroke="url(#paint2_linear_511:4930)" stroke-width="2" stroke-linejoin="round"/>
<path d="M204.551 187.734C204.565 187.009 204.413 186.446 204.007 186.092C203.686 185.803 203.188 185.647 202.492 185.636L201.556 185.623C201.284 185.624 201.122 185.546 201.026 185.459C200.908 185.353 200.878 185.214 200.88 185.116C200.887 184.775 201.168 184.355 201.833 184.271C202.172 184.228 202.816 184.114 203.297 184.547L204.522 183.186C203.87 182.599 203.035 182.441 201.922 182.582C200.154 182.805 199.063 183.985 199.035 185.414C199.021 186.085 199.185 186.591 199.538 186.92C199.88 187.238 200.399 187.403 201.085 187.415L202.021 187.429C202.271 187.43 202.433 187.486 202.529 187.573C202.636 187.68 202.677 187.829 202.673 188.016C202.664 188.466 202.299 188.765 201.546 188.86C200.924 188.939 200.217 188.885 199.821 188.529L198.575 189.915C199.344 190.63 200.311 190.727 201.5 190.577C203.137 190.37 204.519 189.329 204.551 187.734ZM211.038 189.307L211.072 187.591L207.7 188.017L207.727 186.642L210.608 186.278L210.643 184.563L207.761 184.926L207.788 183.618L211.16 183.192L211.194 181.476L205.912 182.143L205.755 189.974L211.038 189.307ZM217.789 182.354L217.823 180.639L212.093 181.363L212.059 183.078L213.969 182.837L213.847 188.952L215.756 188.71L215.879 182.596L217.789 182.354Z" fill="url(#paint3_linear_511:4930)"/>
<path d="M147.098 205.333L135.315 207.206C134.345 207.37 133.351 207.308 132.409 207.026C131.466 206.744 130.602 206.249 129.882 205.579C129.162 204.909 128.605 204.082 128.256 203.163C127.906 202.243 127.773 201.256 127.867 200.277V197.252C127.937 195.043 128.745 192.922 130.16 191.225C131.575 189.527 133.516 188.352 135.676 187.885L147.459 186.011C148.429 185.848 149.423 185.909 150.365 186.191C151.308 186.474 152.172 186.969 152.892 187.639C153.613 188.309 154.169 189.135 154.518 190.055C154.868 190.974 155.001 191.962 154.908 192.941V195.988C154.836 198.194 154.028 200.312 152.612 202.006C151.197 203.699 149.256 204.87 147.098 205.333V205.333Z" stroke="url(#paint4_linear_511:4930)" stroke-width="2" stroke-linejoin="round"/>
<path d="M137.309 197.246C137.333 196.069 137.388 194.964 136.589 194.269C136.036 193.788 135.39 193.584 134.445 193.734C133.5 193.885 132.842 194.297 132.266 194.959C131.435 195.914 131.445 197.009 131.422 198.185C131.398 199.362 131.344 200.467 132.142 201.162C132.695 201.644 133.341 201.848 134.286 201.697C135.231 201.546 135.889 201.134 136.465 200.472C137.296 199.517 137.286 198.423 137.309 197.246ZM135.408 197.549C135.38 198.979 135.266 199.249 135.088 199.508C134.943 199.717 134.668 199.926 134.32 199.981C133.973 200.037 133.704 199.915 133.567 199.751C133.398 199.547 133.294 199.312 133.323 197.882C133.351 196.452 133.465 196.171 133.644 195.912C133.789 195.703 134.063 195.506 134.411 195.45C134.759 195.395 135.027 195.505 135.165 195.67C135.334 195.873 135.437 196.12 135.408 197.549ZM143.921 193.998L143.956 192.283L138.698 193.122L138.542 200.952L140.443 200.649L140.503 197.624L143.371 197.167L143.405 195.451L140.537 195.909L140.565 194.534L143.921 193.998ZM150.392 192.966L150.427 191.25L145.169 192.089L145.013 199.919L146.913 199.616L146.974 196.592L149.842 196.134L149.876 194.418L147.008 194.876L147.036 193.501L150.392 192.966Z" fill="url(#paint5_linear_511:4930)"/>
<path d="M221.63 234.518L221.745 236.014C221.753 236.013 221.761 236.012 221.769 236.012L221.63 234.518ZM222.736 234.518L222.962 233.035C222.933 233.031 222.904 233.027 222.875 233.025L222.736 234.518ZM233.051 245.601L231.896 244.644C231.87 244.675 231.845 244.707 231.822 244.741L233.051 245.601ZM205.276 225.953C204.46 226.096 203.915 226.874 204.058 227.69C204.202 228.506 204.979 229.051 205.795 228.908L205.276 225.953ZM243.456 220.659L243.665 222.144C243.677 222.143 243.689 222.141 243.701 222.139L243.456 220.659ZM262.845 224.18L261.808 225.263C261.836 225.29 261.865 225.316 261.895 225.341L262.845 224.18ZM280.497 238.626L281.781 237.852C281.693 237.705 281.579 237.574 281.447 237.465L280.497 238.626ZM270.294 248.038L270.045 246.559C270.026 246.563 270.007 246.566 269.988 246.57L270.294 248.038ZM121.546 279.075L121.835 280.547C121.841 280.545 121.847 280.544 121.853 280.543L121.546 279.075ZM106.175 276.231L105.069 277.244C105.079 277.255 105.089 277.265 105.098 277.275L106.175 276.231ZM95.4083 262.372L96.6638 261.551L96.6595 261.544L95.4083 262.372ZM105.566 246.188L105.887 247.653L105.888 247.653L105.566 246.188ZM163.516 236.127C164.33 235.973 164.865 235.188 164.71 234.374C164.556 233.56 163.771 233.025 162.957 233.18L163.516 236.127ZM207.058 220.633C207.069 219.804 206.405 219.124 205.577 219.114C204.749 219.104 204.069 219.767 204.059 220.595L207.058 220.633ZM203.697 249.713C203.687 250.541 204.35 251.221 205.179 251.231C206.007 251.242 206.687 250.578 206.697 249.75L203.697 249.713ZM161.218 257.657C161.194 258.485 161.847 259.175 162.675 259.199C163.503 259.222 164.193 258.57 164.217 257.742L161.218 257.657ZM163.868 217.07L162.493 216.472C162.417 216.647 162.375 216.836 162.369 217.028L163.868 217.07ZM182.987 210.028L183.205 211.512L183.21 211.511L182.987 210.028ZM198.448 212.037L197.236 212.92C197.263 212.957 197.293 212.994 197.324 213.029L198.448 212.037ZM204.095 220.703C204.643 221.325 205.591 221.384 206.212 220.836C206.833 220.288 206.893 219.34 206.345 218.719L204.095 220.703ZM204.476 221.503C205.291 221.651 206.073 221.112 206.221 220.297C206.37 219.482 205.83 218.7 205.016 218.551L204.476 221.503ZM191.203 219.869L190.968 218.388C190.952 218.39 190.937 218.393 190.921 218.396L191.203 219.869ZM173.981 226.234L172.98 227.352C173.462 227.783 174.164 227.857 174.725 227.536L173.981 226.234ZM164.891 216.088C164.274 215.535 163.326 215.588 162.773 216.205C162.221 216.823 162.273 217.771 162.891 218.323L164.891 216.088ZM208.295 249.09C195.737 251.349 181.136 254.318 169.467 256.55C163.619 257.669 158.511 258.601 154.737 259.174C152.846 259.461 151.32 259.653 150.214 259.735C149.658 259.776 149.245 259.787 148.96 259.774C148.818 259.768 148.738 259.757 148.704 259.751C148.649 259.741 148.75 259.75 148.902 259.84L147.37 262.42C147.658 262.59 147.954 262.663 148.154 262.7C148.374 262.741 148.606 262.762 148.831 262.772C149.283 262.791 149.829 262.772 150.436 262.726C151.657 262.636 153.272 262.43 155.187 262.14C159.023 261.558 164.18 260.616 170.03 259.497C181.756 257.254 196.284 254.298 208.826 252.043L208.295 249.09ZM148.902 259.84C148.525 259.616 147.677 258.913 146.53 257.831C145.428 256.791 144.156 255.502 142.969 254.216C141.778 252.924 140.701 251.665 139.973 250.679C139.604 250.178 139.361 249.798 139.235 249.546C139.17 249.416 139.168 249.383 139.177 249.425C139.183 249.45 139.199 249.532 139.192 249.654C139.185 249.779 139.151 249.981 139.023 250.198L136.438 248.677C136.108 249.238 136.19 249.804 136.246 250.064C136.313 250.369 136.435 250.654 136.553 250.89C136.793 251.37 137.154 251.911 137.559 252.46C138.38 253.573 139.54 254.923 140.764 256.25C141.993 257.582 143.314 258.921 144.471 260.013C145.585 261.064 146.664 262 147.37 262.42L148.902 259.84ZM139.023 250.198C138.87 250.459 138.69 250.542 138.769 250.494C138.806 250.472 138.9 250.422 139.079 250.35C139.432 250.208 139.962 250.037 140.676 249.841C142.095 249.451 144.083 249.006 146.483 248.518C151.275 247.543 157.578 246.424 163.977 245.271L163.445 242.319C157.067 243.468 150.719 244.595 145.885 245.578C143.47 246.069 141.402 246.531 139.882 246.948C139.127 247.155 138.467 247.362 137.956 247.568C137.702 247.671 137.445 247.789 137.217 247.926C137.033 248.038 136.676 248.273 136.438 248.677L139.023 250.198ZM205.536 237.182C205.783 238.661 205.783 238.661 205.783 238.661C205.784 238.661 205.784 238.661 205.784 238.661C205.784 238.661 205.785 238.661 205.786 238.661C205.788 238.66 205.791 238.66 205.795 238.659C205.802 238.658 205.814 238.656 205.829 238.654C205.858 238.649 205.903 238.641 205.961 238.632C206.076 238.612 206.246 238.584 206.463 238.548C206.895 238.475 207.513 238.372 208.256 238.248C209.742 238 211.726 237.67 213.719 237.338C215.712 237.007 217.714 236.675 219.235 236.424C219.996 236.299 220.635 236.194 221.093 236.12C221.615 236.036 221.791 236.01 221.745 236.014L221.515 233.023C221.395 233.032 221.013 233.094 220.615 233.158C220.152 233.233 219.509 233.338 218.747 233.464C217.224 233.715 215.22 234.047 213.227 234.379C211.233 234.71 209.248 235.041 207.762 235.289C207.019 235.413 206.401 235.516 205.968 235.589C205.752 235.625 205.582 235.653 205.466 235.673C205.408 235.682 205.364 235.69 205.334 235.695C205.319 235.697 205.308 235.699 205.3 235.7C205.296 235.701 205.293 235.701 205.292 235.702C205.291 235.702 205.29 235.702 205.289 235.702C205.289 235.702 205.289 235.702 205.289 235.702C205.289 235.702 205.289 235.702 205.536 237.182ZM221.769 236.012C222.044 235.986 222.321 235.986 222.596 236.012L222.875 233.025C222.415 232.982 221.951 232.982 221.49 233.025L221.769 236.012ZM222.509 236.001C222.343 235.976 222.287 235.924 222.399 235.987C222.482 236.033 222.61 236.115 222.786 236.244C223.137 236.501 223.59 236.878 224.119 237.356C225.173 238.308 226.441 239.579 227.65 240.878C228.861 242.179 229.983 243.478 230.753 244.483C231.144 244.993 231.41 245.384 231.553 245.64C231.629 245.777 231.631 245.805 231.617 245.755C231.609 245.729 231.579 245.616 231.584 245.448C231.59 245.276 231.641 244.952 231.896 244.644L234.206 246.558C234.502 246.201 234.574 245.809 234.583 245.552C234.591 245.301 234.545 245.086 234.505 244.943C234.425 244.659 234.291 244.39 234.172 244.176C233.923 243.731 233.553 243.205 233.135 242.659C232.285 241.55 231.093 240.174 229.846 238.835C228.598 237.493 227.266 236.157 226.131 235.131C225.565 234.62 225.027 234.166 224.558 233.823C224.325 233.652 224.086 233.492 223.854 233.363C223.651 233.251 223.331 233.092 222.962 233.035L222.509 236.001ZM231.822 244.741C232.015 244.466 232.25 244.335 232.273 244.321C232.343 244.28 232.397 244.256 232.415 244.249C232.453 244.233 232.469 244.229 232.442 244.237C232.393 244.253 232.297 244.281 232.139 244.321C231.83 244.401 231.367 244.51 230.754 244.647C229.532 244.921 227.769 245.293 225.575 245.743C221.19 246.641 215.113 247.842 208.276 249.162L208.845 252.107C215.687 250.786 221.776 249.583 226.177 248.681C228.376 248.231 230.161 247.854 231.409 247.575C232.03 247.436 232.532 247.318 232.889 247.226C233.064 247.181 233.227 247.136 233.359 247.094C233.421 247.074 233.508 247.045 233.596 247.007C233.639 246.988 233.714 246.955 233.799 246.904C233.837 246.882 234.082 246.743 234.28 246.461L231.822 244.741ZM256.673 234.473C256.673 235.377 256.099 236.404 254.733 237.28C253.383 238.145 251.427 238.729 249.19 238.729V241.729C251.914 241.729 254.45 241.024 256.351 239.806C258.236 238.598 259.673 236.748 259.673 234.473H256.673ZM249.19 238.729C246.952 238.729 244.996 238.145 243.646 237.28C242.28 236.404 241.706 235.377 241.706 234.473H238.706C238.706 236.748 240.143 238.598 242.028 239.806C243.93 241.024 246.466 241.729 249.19 241.729V238.729ZM241.706 234.473C241.706 233.569 242.28 232.542 243.646 231.666C244.996 230.801 246.952 230.217 249.19 230.217V227.217C246.466 227.217 243.93 227.922 242.028 229.14C240.143 230.348 238.706 232.198 238.706 234.473H241.706ZM249.19 230.217C251.427 230.217 253.383 230.801 254.733 231.666C256.099 232.542 256.673 233.569 256.673 234.473H259.673C259.673 232.198 258.236 230.348 256.351 229.14C254.45 227.922 251.914 227.217 249.19 227.217V230.217ZM127.653 259.189C127.653 260.093 127.079 261.12 125.713 261.996C124.363 262.861 122.407 263.445 120.17 263.445V266.445C122.893 266.445 125.43 265.74 127.331 264.522C129.216 263.314 130.653 261.464 130.653 259.189H127.653ZM120.17 263.445C117.932 263.445 115.976 262.861 114.626 261.996C113.26 261.12 112.686 260.093 112.686 259.189H109.686C109.686 261.464 111.123 263.314 113.008 264.522C114.91 265.74 117.446 266.445 120.17 266.445V263.445ZM112.686 259.189C112.686 258.285 113.26 257.257 114.626 256.382C115.976 255.517 117.932 254.933 120.17 254.933V251.933C117.446 251.933 114.91 252.638 113.008 253.856C111.123 255.064 109.686 256.914 109.686 259.189H112.686ZM120.17 254.933C122.407 254.933 124.363 255.517 125.713 256.382C127.079 257.257 127.653 258.285 127.653 259.189H130.653C130.653 256.914 129.216 255.064 127.331 253.856C125.43 252.638 122.893 251.933 120.17 251.933V254.933ZM205.795 228.908C222.691 225.941 240.966 222.524 243.665 222.144L243.248 219.174C240.484 219.562 222.058 223.006 205.276 225.953L205.795 228.908ZM243.701 222.139C248.23 221.392 251.508 221.012 254.294 221.392C256.982 221.759 259.288 222.848 261.808 225.263L263.883 223.097C260.963 220.298 258.089 218.882 254.7 218.419C251.408 217.97 247.711 218.437 243.212 219.179L243.701 222.139ZM261.895 225.341L279.547 239.787L281.447 237.465L263.795 223.019L261.895 225.341ZM279.212 239.4C279.834 240.432 279.952 241.193 279.865 241.75C279.778 242.3 279.454 242.887 278.718 243.501C277.173 244.789 274.217 245.856 270.045 246.559L270.543 249.518C274.813 248.798 278.448 247.631 280.639 245.805C281.77 244.861 282.6 243.67 282.828 242.215C283.056 240.765 282.649 239.292 281.781 237.852L279.212 239.4ZM269.988 246.57L121.24 277.606L121.853 280.543L270.601 249.507L269.988 246.57ZM121.258 277.603C117.716 278.297 111.716 279.788 107.252 275.186L105.098 277.275C110.881 283.236 118.696 281.162 121.835 280.547L121.258 277.603ZM107.281 275.217C103.376 270.958 99.8256 266.387 96.6638 261.551L94.1528 263.192C97.4038 268.165 101.055 272.865 105.069 277.244L107.281 275.217ZM96.6595 261.544C95.0503 259.111 94.7105 256.294 95.9307 253.838C97.1587 251.366 100.141 248.914 105.887 247.653L105.244 244.722C98.9595 246.102 95.0123 248.943 93.2439 252.503C91.4677 256.079 92.0645 260.034 94.1572 263.199L96.6595 261.544ZM105.888 247.653C112.64 246.167 135.197 241.498 163.516 236.127L162.957 233.18C134.621 238.553 112.034 243.229 105.243 244.723L105.888 247.653ZM204.059 220.595L203.697 249.713L206.697 249.75L207.058 220.633L204.059 220.595ZM164.217 257.742L165.368 217.113L162.369 217.028L161.218 257.657L164.217 257.742ZM163.868 217.07C165.244 217.668 165.243 217.67 165.242 217.672C165.242 217.673 165.241 217.675 165.241 217.676C165.239 217.679 165.238 217.681 165.237 217.684C165.235 217.688 165.233 217.693 165.231 217.697C165.227 217.706 165.224 217.713 165.221 217.719C165.215 217.731 165.21 217.739 165.208 217.743C165.204 217.75 165.209 217.74 165.227 217.714C165.263 217.662 165.35 217.544 165.516 217.374C165.85 217.032 166.507 216.475 167.716 215.812C170.142 214.482 174.733 212.76 183.205 211.512L182.768 208.544C174.086 209.823 169.118 211.623 166.274 213.182C164.847 213.964 163.941 214.693 163.371 215.277C163.085 215.569 162.885 215.824 162.746 216.028C162.676 216.131 162.622 216.22 162.581 216.295C162.561 216.332 162.543 216.365 162.529 216.395C162.521 216.41 162.515 216.424 162.509 216.436C162.506 216.443 162.503 216.449 162.5 216.455C162.499 216.458 162.498 216.461 162.497 216.464C162.496 216.465 162.495 216.467 162.495 216.468C162.494 216.47 162.493 216.472 163.868 217.07ZM183.21 211.511C189.361 210.587 192.98 211.1 194.988 211.748C195.989 212.072 196.596 212.431 196.926 212.67C197.092 212.79 197.191 212.883 197.237 212.93C197.261 212.953 197.271 212.966 197.27 212.965C197.27 212.964 197.267 212.96 197.261 212.953C197.258 212.949 197.254 212.945 197.25 212.939C197.248 212.936 197.246 212.933 197.243 212.93C197.242 212.928 197.241 212.927 197.24 212.925C197.239 212.924 197.238 212.923 197.238 212.922C197.237 212.921 197.236 212.92 198.448 212.037C199.661 211.154 199.66 211.152 199.659 211.151C199.658 211.15 199.657 211.149 199.657 211.148C199.655 211.146 199.654 211.144 199.652 211.142C199.649 211.138 199.646 211.133 199.642 211.129C199.635 211.119 199.627 211.109 199.619 211.098C199.601 211.076 199.581 211.051 199.556 211.022C199.508 210.965 199.445 210.895 199.366 210.815C199.207 210.656 198.986 210.458 198.688 210.242C198.09 209.808 197.197 209.31 195.91 208.894C193.342 208.064 189.23 207.573 182.764 208.544L183.21 211.511ZM197.324 213.029L204.095 220.703L206.345 218.719L199.573 211.044L197.324 213.029ZM205.016 218.551C200.376 217.704 195.626 217.648 190.968 218.388L191.438 221.35C195.761 220.664 200.17 220.716 204.476 221.503L205.016 218.551ZM190.921 218.396C184.706 219.583 178.73 221.792 173.236 224.932L174.725 227.536C179.931 224.56 185.594 222.467 191.484 221.342L190.921 218.396ZM174.981 225.116L164.891 216.088L162.891 218.323L172.98 227.352L174.981 225.116ZM172.571 226.197L171.826 255.946L174.826 256.021L175.57 226.272L172.571 226.197Z" fill="url(#paint6_linear_511:4930)"/>
</g>
<path d="M167.655 170.019C169.51 168.343 173 167 175.5 167C178 167 180.324 167.757 182.345 169.228" stroke="#50B9A6" stroke-width="3" stroke-linecap="round"/>
<path d="M171.569 175.328C172.536 174.181 174 173.5 175.5 173.5C177 173.5 178.431 174.741 178.431 174.741" stroke="#50B9A6" stroke-width="3" stroke-linecap="round"/>
<path d="M162.635 165.004C164.299 163.293 166.305 161.938 168.528 161.024C170.751 160.11 173.143 159.658 175.553 159.694C179.806 159.654 183.932 161.113 187.181 163.806" stroke="#50B9A6" stroke-width="3" stroke-linecap="round"/>
<circle cx="188" cy="231" r="68.5" stroke="white" stroke-opacity="0.08"/>
<circle cx="188" cy="231" r="149.5" stroke="white" stroke-opacity="0.08"/>
<circle cx="188" cy="231" r="119.5" stroke="white" stroke-opacity="0.06"/>
<defs>
<filter id="filter0_f_511:4930" x="-72" y="-40" width="520" height="520" filterUnits="userSpaceOnUse" color-interpolation-filters="sRGB">
<feFlood flood-opacity="0" result="BackgroundImageFix"/>
<feBlend mode="normal" in="SourceGraphic" in2="BackgroundImageFix" result="shape"/>
<feGaussianBlur stdDeviation="50" result="effect1_foregroundBlur_511:4930"/>
</filter>
<linearGradient id="paint0_linear_511:4930" x1="69.4815" y1="97.5309" x2="304.543" y2="367.161" gradientUnits="userSpaceOnUse">
<stop stop-color="#0043EF"/>
<stop offset="1" stop-color="#AD00FF"/>
</linearGradient>
<linearGradient id="paint1_linear_511:4930" x1="192.181" y1="179" x2="192.181" y2="202" gradientUnits="userSpaceOnUse">
<stop stop-color="#F76800"/>
<stop offset="1" stop-color="#F7A600"/>
</linearGradient>
<linearGradient id="paint2_linear_511:4930" x1="223.411" y1="175.187" x2="223.411" y2="195.17" gradientUnits="userSpaceOnUse">
<stop stop-color="#F76800"/>
<stop offset="1" stop-color="#F7A600"/>
</linearGradient>
<linearGradient id="paint3_linear_511:4930" x1="222.075" y1="174.948" x2="224.314" y2="192.677" gradientUnits="userSpaceOnUse">
<stop stop-color="#F76800"/>
<stop offset="1" stop-color="#F7A600"/>
</linearGradient>
<linearGradient id="paint4_linear_511:4930" x1="156.975" y1="185.922" x2="156.975" y2="207.296" gradientUnits="userSpaceOnUse">
<stop stop-color="#F76800"/>
<stop offset="1" stop-color="#F7A600"/>
</linearGradient>
<linearGradient id="paint5_linear_511:4930" x1="154.441" y1="185.459" x2="157.242" y2="203.012" gradientUnits="userSpaceOnUse">
<stop stop-color="#F76800"/>
<stop offset="1" stop-color="#F7A600"/>
</linearGradient>
<linearGradient id="paint6_linear_511:4930" x1="295.509" y1="209.508" x2="295.509" y2="279.897" gradientUnits="userSpaceOnUse">
<stop stop-color="#F76800"/>
<stop offset="1" stop-color="#F7A600"/>
</linearGradient>
<clipPath id="clip0_511:4930">
<rect width="191.07" height="123.49" fill="white" transform="translate(92 158)"/>
</clipPath>
</defs>
</svg>
