<svg width="18" height="19" viewBox="0 0 18 19" fill="none" xmlns="http://www.w3.org/2000/svg">
<path d="M6.20025 11.5103C6.06225 11.5103 5.96925 11.5238 5.92125 11.5373V12.4208C5.97825 12.4343 6.0495 12.438 6.14775 12.438C6.507 12.438 6.72825 12.2565 6.72825 11.9498C6.72825 11.6753 6.53775 11.5103 6.20025 11.5103ZM8.8155 11.5193C8.6655 11.5193 8.568 11.5328 8.51025 11.5463V13.5038C8.568 13.5173 8.661 13.5173 8.745 13.5173C9.35775 13.5218 9.75675 13.1843 9.75675 12.4703C9.76125 11.8478 9.3975 11.5193 8.8155 11.5193Z"/>
<path d="M10.5 2H4.5C4.10218 2 3.72064 2.15804 3.43934 2.43934C3.15804 2.72064 3 3.10218 3 3.5V15.5C3 15.8978 3.15804 16.2794 3.43934 16.5607C3.72064 16.842 4.10218 17 4.5 17H13.5C13.8978 17 14.2794 16.842 14.5607 16.5607C14.842 16.2794 15 15.8978 15 15.5V6.5L10.5 2ZM7.1235 12.6425C6.89175 12.86 6.54975 12.9575 6.1515 12.9575C6.07428 12.9583 5.9971 12.9538 5.9205 12.944V14.0135H5.25V11.0615C5.55259 11.0164 5.85834 10.9958 6.16425 11C6.582 11 6.879 11.0795 7.07925 11.2393C7.26975 11.3908 7.39875 11.639 7.39875 11.9315C7.398 12.2255 7.3005 12.4738 7.1235 12.6425ZM9.97875 13.6588C9.66375 13.9205 9.1845 14.045 8.59875 14.045C8.24775 14.045 7.9995 14.0225 7.83075 14V11.0623C8.13345 11.0181 8.4391 10.9973 8.745 11C9.31275 11 9.68175 11.102 9.96975 11.3195C10.281 11.5505 10.476 11.9188 10.476 12.4475C10.476 13.0198 10.2667 13.415 9.97875 13.6588ZM12.75 11.5775H11.601V12.2608H12.675V12.8113H11.601V14.0143H10.9215V11.0225H12.75V11.5775ZM10.5 7.25H9.75V3.5L13.5 7.25H10.5Z"/>
</svg>
