<svg width="17" height="16" viewBox="0 0 17 16" fill="none" xmlns="http://www.w3.org/2000/svg">
<g clip-path="url(#clip0_342:5919)">
<path fill-rule="evenodd" clip-rule="evenodd" d="M1.16667 2.00005C1.53486 2.00005 1.83334 2.29853 1.83334 2.66672V6.00005H5.16667C5.53486 6.00005 5.83334 6.29853 5.83334 6.66672C5.83334 7.03491 5.53486 7.33338 5.16667 7.33338H1.16667C0.798479 7.33338 0.500002 7.03491 0.500002 6.66672V2.66672C0.500002 2.29853 0.798479 2.00005 1.16667 2.00005Z" fill="#F7A600"/>
<path fill-rule="evenodd" clip-rule="evenodd" d="M11.1667 9.33338C11.1667 8.96519 11.4651 8.66672 11.8333 8.66672H15.8333C16.2015 8.66672 16.5 8.96519 16.5 9.33338V13.3334C16.5 13.7016 16.2015 14.0001 15.8333 14.0001C15.4651 14.0001 15.1667 13.7016 15.1667 13.3334V10.0001H11.8333C11.4651 10.0001 11.1667 9.70157 11.1667 9.33338Z" fill="#F7A600"/>
<path fill-rule="evenodd" clip-rule="evenodd" d="M6.6513 1.59749C7.73311 1.28457 8.87655 1.2508 9.97493 1.49933C11.0733 1.74785 12.0908 2.27057 12.9326 3.0187C13.7743 3.76684 14.4128 4.71601 14.7885 5.77765C14.9113 6.12475 14.7295 6.5057 14.3824 6.62853C14.0353 6.75135 13.6544 6.56955 13.5315 6.22245C13.231 5.37314 12.7202 4.6138 12.0468 4.01529C11.3734 3.41678 10.5594 2.99861 9.68069 2.79979C8.80198 2.60097 7.88723 2.62798 7.02178 2.87831C6.15634 3.12864 5.36841 3.59413 4.73152 4.23134C4.7266 4.23626 4.7216 4.24112 4.71652 4.24589L1.62319 7.15255C1.35487 7.40468 0.932961 7.39156 0.680833 7.12324C0.428706 6.85492 0.441831 6.43301 0.710151 6.18088L3.79607 3.28118C4.59084 2.48856 5.57293 1.9094 6.6513 1.59749ZM16.3192 8.87687C16.5713 9.14519 16.5582 9.56709 16.2899 9.81922L13.2039 12.7189C12.4092 13.5115 11.4271 14.0907 10.3487 14.4026C9.2669 14.7155 8.12346 14.7493 7.02507 14.5008C5.92668 14.2523 4.90915 13.7295 4.06743 12.9814C3.2257 12.2333 2.5872 11.2841 2.21152 10.2224C2.0887 9.87535 2.27051 9.4944 2.6176 9.37157C2.9647 9.24875 3.34565 9.43056 3.46848 9.77765C3.76902 10.627 4.27982 11.3863 4.9532 11.9848C5.62658 12.5833 6.44061 13.0015 7.31932 13.2003C8.19802 13.3991 9.11278 13.3721 9.97822 13.1218C10.8437 12.8715 11.6316 12.406 12.2685 11.7688C12.2714 11.7658 12.2744 11.7629 12.2774 11.76C12.2794 11.758 12.2815 11.7561 12.2835 11.7542L15.3768 8.84755C15.6451 8.59542 16.067 8.60855 16.3192 8.87687Z" fill="#F7A600"/>
</g>
<defs>
<clipPath id="clip0_342:5919">
<rect width="16" height="16" fill="white" transform="translate(0.5)"/>
</clipPath>
</defs>
</svg>
