<svg width="16" height="16" viewBox="0 0 16 16" fill="none" xmlns="http://www.w3.org/2000/svg">
<path fill-rule="evenodd" clip-rule="evenodd" d="M1.33337 4.00008C1.33337 3.63189 1.63185 3.33341 2.00004 3.33341H14C14.3682 3.33341 14.6667 3.63189 14.6667 4.00008C14.6667 4.36827 14.3682 4.66675 14 4.66675H2.00004C1.63185 4.66675 1.33337 4.36827 1.33337 4.00008Z" fill="#F7A600"/>
<path fill-rule="evenodd" clip-rule="evenodd" d="M6.66671 2.00008C6.4899 2.00008 6.32033 2.07032 6.1953 2.19534C6.07028 2.32037 6.00004 2.48994 6.00004 2.66675V3.33341H10V2.66675C10 2.48994 9.9298 2.32037 9.80478 2.19534C9.67975 2.07032 9.51019 2.00008 9.33337 2.00008H6.66671ZM11.3334 3.33341V2.66675C11.3334 2.13631 11.1227 1.62761 10.7476 1.25253C10.3725 0.877462 9.86381 0.666748 9.33337 0.666748H6.66671C6.13627 0.666748 5.62757 0.877462 5.25249 1.25253C4.87742 1.62761 4.66671 2.13631 4.66671 2.66675V3.33341H3.33337C2.96518 3.33341 2.66671 3.63189 2.66671 4.00008V13.3334C2.66671 13.8638 2.87742 14.3726 3.25249 14.7476C3.62757 15.1227 4.13627 15.3334 4.66671 15.3334H11.3334C11.8638 15.3334 12.3725 15.1227 12.7476 14.7476C13.1227 14.3726 13.3334 13.8638 13.3334 13.3334V4.00008C13.3334 3.63189 13.0349 3.33341 12.6667 3.33341H11.3334ZM4.00004 4.66675V13.3334C4.00004 13.5102 4.07028 13.6798 4.1953 13.8048C4.32033 13.9298 4.4899 14.0001 4.66671 14.0001H11.3334C11.5102 14.0001 11.6798 13.9298 11.8048 13.8048C11.9298 13.6798 12 13.5102 12 13.3334V4.66675H4.00004Z" fill="#F7A600"/>
<path fill-rule="evenodd" clip-rule="evenodd" d="M6.66671 6.66675C7.0349 6.66675 7.33337 6.96522 7.33337 7.33341V11.3334C7.33337 11.7016 7.0349 12.0001 6.66671 12.0001C6.29852 12.0001 6.00004 11.7016 6.00004 11.3334V7.33341C6.00004 6.96522 6.29852 6.66675 6.66671 6.66675Z" fill="#F7A600"/>
<path fill-rule="evenodd" clip-rule="evenodd" d="M9.33337 6.66675C9.70156 6.66675 10 6.96522 10 7.33341V11.3334C10 11.7016 9.70156 12.0001 9.33337 12.0001C8.96518 12.0001 8.66671 11.7016 8.66671 11.3334V7.33341C8.66671 6.96522 8.96518 6.66675 9.33337 6.66675Z" fill="#F7A600"/>
</svg>
