<svg width="16" height="16" viewBox="0 0 16 16" fill="none" xmlns="http://www.w3.org/2000/svg">
<path fill-rule="evenodd" clip-rule="evenodd" d="M4.57279 3.22749C4.81521 3.35972 4.90454 3.66344 4.77231 3.90586L3.17563 6.8331H6.8423L4.8423 10.4998H8.88312L6.42877 14.5904C6.2867 14.8271 5.97957 14.9039 5.74278 14.7618C5.50599 14.6198 5.42921 14.3126 5.57128 14.0759L7.11693 11.4998H3.15776L5.15776 7.8331H1.49109L3.89441 3.42701C4.02664 3.18459 4.33036 3.09526 4.57279 3.22749Z" fill="#F7A600"/>
<path fill-rule="evenodd" clip-rule="evenodd" d="M10.2395 0.894155C10.4819 1.02639 10.5712 1.3301 10.439 1.57253L8.8423 4.49977H12.509L10.509 8.16644H14.5498L12.0954 12.257C11.9534 12.4938 11.6462 12.5706 11.4094 12.4285C11.1727 12.2864 11.0959 11.9793 11.2379 11.7425L12.7836 9.16644H8.82442L10.8244 5.49977H7.15776L9.56108 1.09368C9.69331 0.851252 9.99703 0.761923 10.2395 0.894155Z" fill="#F7A600"/>
</svg>
