<svg width="375" height="480" viewBox="0 0 375 480" fill="none" xmlns="http://www.w3.org/2000/svg">
<g opacity="0.3" filter="url(#filter0_f_342:5924)">
<circle cx="187" cy="220" r="160" fill="url(#paint0_linear_342:5924)" fill-opacity="0.7"/>
</g>
<circle cx="187" cy="231" r="68.5" stroke="white" stroke-opacity="0.08"/>
<circle cx="187" cy="231" r="149.5" stroke="white" stroke-opacity="0.08"/>
<circle cx="187" cy="231" r="119.5" stroke="white" stroke-opacity="0.06"/>
<path d="M255.475 219.273L250.485 217.901C250.125 217.805 249.793 217.62 249.519 217.364C249.246 217.107 249.039 216.787 248.918 216.431C245.719 207.684 241.772 199.225 237.121 191.151C232.439 183.064 227.088 175.383 221.126 168.191C220.889 167.902 220.724 167.56 220.646 167.195C220.567 166.83 220.578 166.452 220.676 166.093L221.957 161.171C222.514 158.971 222.187 156.629 221.045 154.651C219.903 152.673 218.038 151.218 215.854 150.601C213.66 150.055 211.35 150.377 209.404 151.5C207.458 152.624 206.024 154.463 205.4 156.637L204.155 161.409C204.072 161.757 203.906 162.079 203.672 162.347C203.437 162.615 203.141 162.821 202.808 162.947C189.653 168.164 176.896 174.327 164.637 181.389L164.492 181.473C152.281 188.527 140.596 196.456 129.528 205.201C129.253 205.426 128.927 205.58 128.578 205.65C128.229 205.72 127.867 205.704 127.524 205.603L122.827 204.311C120.632 203.764 118.323 204.086 116.377 205.21C114.43 206.334 112.997 208.173 112.373 210.347C111.81 212.551 112.136 214.901 113.281 216.884C114.427 218.868 116.298 220.326 118.489 220.94L123.316 222.272C123.68 222.371 124.015 222.558 124.294 222.815C124.572 223.073 124.785 223.393 124.915 223.75C128.017 232.568 131.928 241.085 136.599 249.188C141.273 257.261 146.699 264.875 152.803 271.923C153.057 272.208 153.237 272.55 153.327 272.92C153.417 273.291 153.414 273.676 153.319 274.043L152.025 279.017C151.467 281.216 151.795 283.559 152.937 285.537C154.079 287.515 155.943 288.969 158.127 289.586C160.322 290.133 162.631 289.811 164.578 288.687C166.524 287.563 167.957 285.724 168.581 283.55L169.811 278.837C169.895 278.489 170.061 278.169 170.295 277.902C170.529 277.635 170.825 277.43 171.157 277.304C184.265 272.09 196.976 265.935 209.192 258.887L209.333 258.806C221.57 251.723 233.278 243.762 244.366 234.983C244.642 234.758 244.969 234.604 245.319 234.535C245.669 234.465 246.032 234.482 246.376 234.583L251.13 235.891C253.328 236.493 255.663 236.196 257.623 235.064C259.583 233.933 261.008 232.059 261.585 229.855C262.142 227.655 261.815 225.313 260.673 223.335C259.531 221.357 257.666 219.902 255.483 219.286L255.475 219.273ZM257.075 228.618C256.788 229.604 256.136 230.438 255.252 230.948C254.368 231.459 253.32 231.607 252.322 231.362L247.568 230.054C246.688 229.806 245.77 229.737 244.867 229.848C243.965 229.96 243.095 230.251 242.309 230.705C242.017 230.876 241.736 231.067 241.47 231.276C230.555 239.922 219.029 247.76 206.981 254.731C194.903 261.686 182.344 267.77 169.397 272.937C168.397 273.336 167.507 273.966 166.796 274.775C166.086 275.584 165.574 276.551 165.301 277.599L164.071 282.313C163.785 283.3 163.132 284.134 162.249 284.644C161.365 285.154 160.316 285.302 159.319 285.057C158.823 284.923 158.357 284.692 157.948 284.376C157.539 284.061 157.195 283.667 156.936 283.219C156.678 282.771 156.509 282.277 156.44 281.765C156.372 281.253 156.404 280.734 156.536 280.237L157.825 275.282C158.113 274.175 158.124 273.009 157.857 271.89C157.59 270.77 157.054 269.731 156.296 268.864C150.388 262.046 145.139 254.679 140.62 246.866C136.104 239.018 132.321 230.772 129.32 222.233C128.94 221.147 128.302 220.168 127.461 219.383C126.621 218.598 125.604 218.03 124.501 217.73L119.693 216.404C119.195 216.271 118.727 216.039 118.317 215.723C117.907 215.407 117.562 215.012 117.302 214.563C117.043 214.114 116.874 213.618 116.805 213.104C116.737 212.591 116.77 212.07 116.903 211.572C117.188 210.584 117.839 209.749 118.724 209.238C119.608 208.728 120.658 208.581 121.655 208.828L126.353 210.12C127.397 210.41 128.492 210.45 129.549 210.239C130.606 210.027 131.597 209.57 132.442 208.902C143.33 200.292 154.827 192.487 166.844 185.547L166.989 185.464C179.052 178.514 191.604 172.45 204.55 167.32C205.553 166.924 206.447 166.295 207.159 165.484C207.872 164.674 208.384 163.704 208.653 162.653L209.898 157.881C210.183 156.894 210.835 156.058 211.719 155.548C212.604 155.037 213.653 154.89 214.651 155.137C215.147 155.271 215.613 155.503 216.022 155.818C216.431 156.134 216.775 156.527 217.033 156.975C217.292 157.423 217.461 157.918 217.529 158.429C217.598 158.941 217.566 159.461 217.434 159.957L216.158 164.861C215.872 165.946 215.851 167.088 216.098 168.19C216.344 169.291 216.851 170.32 217.575 171.187C223.359 178.17 228.558 185.621 233.117 193.463C237.629 201.298 241.459 209.507 244.562 217.995C244.942 219.063 245.574 220.023 246.403 220.793C247.233 221.564 248.235 222.12 249.322 222.413L254.295 223.785C254.792 223.92 255.259 224.152 255.668 224.469C256.077 224.786 256.421 225.18 256.679 225.629C256.938 226.079 257.106 226.574 257.174 227.087C257.242 227.6 257.208 228.12 257.075 228.618Z" fill="url(#paint1_linear_342:5924)"/>
<path d="M128.347 275.062L135.012 273.925L133.091 281.213L138.73 280.25L137.244 287L143.755 284.961L142.192 291.26" stroke="#5617EF" stroke-width="2" stroke-linecap="round"/>
<path d="M229.481 157.583H236.077L233.032 163.519H238.613L236.077 169.059L242.672 168.268L240.136 173.413" stroke="#50B9A6" stroke-width="2" stroke-linecap="round"/>
<defs>
<filter id="filter0_f_342:5924" x="-73" y="-40" width="520" height="520" filterUnits="userSpaceOnUse" color-interpolation-filters="sRGB">
<feFlood flood-opacity="0" result="BackgroundImageFix"/>
<feBlend mode="normal" in="SourceGraphic" in2="BackgroundImageFix" result="shape"/>
<feGaussianBlur stdDeviation="50" result="effect1_foregroundBlur_342:5924"/>
</filter>
<linearGradient id="paint0_linear_342:5924" x1="68.4815" y1="97.5309" x2="303.543" y2="367.161" gradientUnits="userSpaceOnUse">
<stop stop-color="#0043EF"/>
<stop offset="1" stop-color="#AD00FF"/>
</linearGradient>
<linearGradient id="paint1_linear_342:5924" x1="224.877" y1="142.567" x2="273.116" y2="226.119" gradientUnits="userSpaceOnUse">
<stop stop-color="#F76800"/>
<stop offset="1" stop-color="#F7A600"/>
</linearGradient>
</defs>
</svg>
