<svg width="521" height="521" viewBox="0 0 521 521" fill="none" xmlns="http://www.w3.org/2000/svg">
	<g opacity="0.3" filter="url(#filter0_f_884_4857)">
		<circle cx="260.191" cy="260.1" r="160" fill="url(#paint0_linear_884_4857)" fill-opacity="0.7" />
	</g>
	<circle cx="259.691" cy="260.1" r="68.5" stroke="white" stroke-opacity="0.08" />

	<circle r="1.5" transform="matrix(-1 0 0 1 371.191 160.6)" fill="#50B9A6" />
	<circle cx="325.691" cy="276.1" r="2" fill="#F7A600" />
	<circle cx="315.691" cy="365.1" r="3" fill="#50B9A6" />
	<circle cx="209.691" cy="307.1" r="3" fill="#4D27AB" />
	<circle cx="140.191" cy="255.6" r="1.5" fill="#50B9A6" />
	<circle cx="175.191" cy="175.6" r="1.5" fill="#4D27AB" />
	<circle cx="210.691" cy="118.1" r="3" fill="#F7A600" />
	<circle cx="378.191" cy="247.6" r="2.5" fill="#4D27AB" />
	<circle cx="259.191" cy="260.1" r="149.5" stroke="white" stroke-opacity="0.2" />
	<circle cx="208.191" cy="400.6" r="2.5" fill="#4D27AB" />
	<circle cx="259.691" cy="260.1" r="119.5" stroke="white" stroke-opacity="0.16" />
	<path
		d="M197.466 347.183L196.214 346.839C196.123 346.814 196.04 346.768 195.971 346.704C195.902 346.639 195.85 346.559 195.82 346.47C195.017 344.273 194.026 342.15 192.858 340.122C191.683 338.092 190.339 336.164 188.842 334.358C188.783 334.285 188.741 334.2 188.722 334.108C188.702 334.016 188.705 333.921 188.729 333.831L189.051 332.595C189.191 332.043 189.109 331.455 188.822 330.958C188.535 330.462 188.067 330.097 187.519 329.942C186.968 329.804 186.388 329.885 185.899 330.167C185.411 330.45 185.051 330.911 184.894 331.457L184.581 332.655C184.561 332.743 184.519 332.823 184.46 332.891C184.401 332.958 184.327 333.01 184.243 333.041C180.94 334.351 177.737 335.898 174.659 337.672L174.623 337.693C171.557 339.464 168.624 341.455 165.845 343.65C165.776 343.707 165.694 343.745 165.606 343.763C165.519 343.78 165.428 343.776 165.342 343.751L164.162 343.427C163.611 343.289 163.031 343.37 162.543 343.652C162.054 343.934 161.694 344.396 161.537 344.942C161.396 345.496 161.478 346.085 161.766 346.583C162.053 347.081 162.523 347.447 163.073 347.602L164.285 347.936C164.376 347.961 164.461 348.008 164.53 348.072C164.6 348.137 164.654 348.218 164.686 348.307C165.465 350.521 166.447 352.659 167.62 354.694C168.793 356.721 170.156 358.632 171.688 360.402C171.752 360.473 171.797 360.56 171.82 360.652C171.843 360.745 171.842 360.842 171.818 360.934L171.493 362.183C171.353 362.735 171.435 363.323 171.722 363.82C172.009 364.317 172.477 364.682 173.025 364.837C173.576 364.974 174.156 364.893 174.645 364.611C175.133 364.329 175.493 363.867 175.65 363.321L175.959 362.138C175.98 362.051 176.021 361.97 176.08 361.903C176.139 361.836 176.213 361.785 176.296 361.753C179.588 360.444 182.779 358.899 185.846 357.129L185.881 357.109C188.954 355.33 191.893 353.332 194.677 351.127C194.747 351.071 194.829 351.032 194.917 351.015C195.004 350.997 195.095 351.002 195.182 351.027L196.376 351.355C196.927 351.507 197.513 351.432 198.006 351.148C198.498 350.864 198.855 350.393 199 349.84C199.14 349.288 199.058 348.7 198.771 348.203C198.485 347.706 198.016 347.341 197.468 347.186L197.466 347.183ZM197.868 349.529C197.796 349.777 197.632 349.986 197.41 350.114C197.188 350.243 196.925 350.28 196.675 350.218L195.481 349.89C195.26 349.828 195.03 349.81 194.803 349.838C194.576 349.866 194.358 349.939 194.161 350.053C194.087 350.096 194.017 350.144 193.95 350.197C191.21 352.367 188.316 354.335 185.291 356.086C182.259 357.832 179.105 359.359 175.854 360.657C175.604 360.757 175.38 360.915 175.202 361.118C175.023 361.321 174.895 361.564 174.826 361.827L174.518 363.011C174.446 363.258 174.282 363.468 174.06 363.596C173.838 363.724 173.575 363.761 173.324 363.7C173.2 363.666 173.083 363.608 172.98 363.529C172.877 363.449 172.791 363.351 172.726 363.238C172.661 363.126 172.619 363.002 172.602 362.873C172.584 362.745 172.592 362.614 172.626 362.489L172.949 361.245C173.021 360.967 173.024 360.675 172.957 360.394C172.89 360.113 172.756 359.852 172.565 359.634C171.082 357.922 169.764 356.073 168.629 354.111C167.496 352.141 166.546 350.07 165.792 347.926C165.697 347.654 165.537 347.408 165.326 347.211C165.115 347.014 164.86 346.871 164.582 346.796L163.375 346.463C163.25 346.429 163.133 346.371 163.03 346.292C162.927 346.212 162.84 346.113 162.775 346.001C162.71 345.888 162.668 345.763 162.65 345.634C162.633 345.505 162.641 345.375 162.675 345.25C162.746 345.002 162.91 344.792 163.132 344.664C163.354 344.536 163.618 344.499 163.868 344.561L165.047 344.885C165.31 344.958 165.584 344.968 165.85 344.915C166.115 344.862 166.364 344.747 166.576 344.579C169.31 342.418 172.197 340.458 175.214 338.716L175.25 338.695C178.279 336.95 181.43 335.427 184.681 334.139C184.932 334.04 185.157 333.882 185.336 333.678C185.515 333.475 185.643 333.231 185.711 332.967L186.023 331.769C186.095 331.521 186.258 331.312 186.481 331.184C186.703 331.055 186.966 331.018 187.217 331.08C187.341 331.114 187.458 331.172 187.561 331.252C187.663 331.331 187.75 331.429 187.815 331.542C187.88 331.654 187.922 331.779 187.939 331.907C187.957 332.036 187.948 332.166 187.915 332.291L187.595 333.522C187.523 333.794 187.518 334.081 187.58 334.358C187.642 334.634 187.769 334.892 187.951 335.11C189.403 336.863 190.708 338.734 191.853 340.703C192.986 342.67 193.947 344.731 194.726 346.862C194.822 347.13 194.98 347.372 195.189 347.565C195.397 347.758 195.649 347.898 195.921 347.972L197.17 348.316C197.295 348.35 197.412 348.408 197.515 348.488C197.617 348.567 197.704 348.666 197.769 348.779C197.834 348.892 197.876 349.016 197.893 349.145C197.91 349.274 197.901 349.404 197.868 349.529V349.529Z"
		fill="url(#paint2_linear_884_4857)" />
	<path
		d="M327.755 169.39L327.5 168.413C327.481 168.342 327.479 168.268 327.496 168.197C327.513 168.126 327.547 168.059 327.595 168.004C328.761 166.61 329.806 165.118 330.717 163.544C331.627 161.963 332.403 160.309 333.036 158.6C333.062 158.531 333.104 158.47 333.158 158.421C333.212 158.372 333.277 158.337 333.347 158.319L334.304 158.055C334.73 157.935 335.094 157.651 335.317 157.265C335.54 156.879 335.604 156.421 335.495 155.992C335.373 155.568 335.093 155.209 334.714 154.99C334.334 154.77 333.883 154.708 333.455 154.814L332.527 155.069C332.46 155.089 332.389 155.093 332.321 155.079C332.253 155.066 332.189 155.036 332.135 154.992C329.97 153.277 327.683 151.723 325.293 150.34L325.265 150.323C322.881 148.948 320.401 147.747 317.843 146.729C317.778 146.705 317.72 146.665 317.674 146.613C317.628 146.561 317.596 146.498 317.579 146.43L317.339 145.51C317.218 145.086 316.938 144.727 316.558 144.507C316.178 144.288 315.727 144.225 315.299 144.332C314.871 144.452 314.506 144.736 314.283 145.124C314.059 145.511 313.995 145.969 314.105 146.4L314.351 147.345C314.37 147.416 314.371 147.491 314.355 147.564C314.339 147.636 314.305 147.703 314.258 147.76C313.07 149.145 312.012 150.637 311.098 152.217C310.19 153.795 309.432 155.455 308.837 157.174C308.813 157.245 308.773 157.309 308.719 157.36C308.666 157.411 308.6 157.449 308.529 157.468L307.562 157.735C307.136 157.855 306.772 158.139 306.549 158.525C306.326 158.911 306.262 159.368 306.371 159.798C306.493 160.222 306.773 160.581 307.152 160.8C307.532 161.02 307.983 161.082 308.411 160.976L309.328 160.724C309.395 160.704 309.465 160.701 309.533 160.714C309.601 160.728 309.665 160.758 309.718 160.801C311.879 162.508 314.159 164.056 316.543 165.433L316.57 165.449C318.961 166.826 321.449 168.028 324.015 169.045C324.08 169.07 324.138 169.11 324.184 169.163C324.23 169.215 324.263 169.278 324.279 169.346L324.522 170.277C324.635 170.707 324.913 171.073 325.295 171.294C325.678 171.515 326.133 171.573 326.562 171.455C326.988 171.335 327.352 171.051 327.575 170.665C327.798 170.279 327.862 169.822 327.753 169.392L327.755 169.39ZM326.331 170.572C326.137 170.62 325.932 170.591 325.759 170.491C325.587 170.392 325.46 170.229 325.404 170.037L325.161 169.105C325.117 168.933 325.039 168.771 324.932 168.629C324.825 168.487 324.691 168.369 324.538 168.28C324.48 168.247 324.421 168.219 324.359 168.194C321.833 167.193 319.383 166.01 317.029 164.654C314.675 163.291 312.421 161.762 310.285 160.078C310.12 159.948 309.926 159.859 309.72 159.818C309.514 159.776 309.301 159.784 309.097 159.841L308.18 160.093C307.986 160.14 307.781 160.112 307.608 160.012C307.436 159.912 307.309 159.75 307.253 159.557C307.227 159.46 307.221 159.359 307.234 159.259C307.247 159.159 307.28 159.063 307.331 158.975C307.381 158.888 307.448 158.811 307.528 158.749C307.608 158.688 307.699 158.643 307.796 158.616L308.759 158.351C308.974 158.291 309.172 158.179 309.336 158.025C309.499 157.871 309.622 157.679 309.695 157.466C310.271 155.802 311.003 154.196 311.883 152.67C312.769 151.141 313.793 149.697 314.944 148.356C315.09 148.186 315.193 147.983 315.244 147.764C315.295 147.545 315.292 147.318 315.235 147.102L314.989 146.16C314.964 146.063 314.957 145.962 314.97 145.861C314.984 145.761 315.017 145.664 315.067 145.577C315.118 145.489 315.185 145.412 315.265 145.35C315.346 145.289 315.437 145.243 315.534 145.217C315.729 145.169 315.933 145.198 316.106 145.297C316.279 145.397 316.406 145.56 316.462 145.753L316.702 146.673C316.755 146.878 316.854 147.067 316.993 147.225C317.132 147.383 317.306 147.505 317.502 147.583C320.019 148.583 322.46 149.765 324.806 151.119L324.834 151.135C327.186 152.496 329.436 154.026 331.566 155.713C331.731 155.844 331.924 155.934 332.131 155.975C332.338 156.016 332.551 156.008 332.755 155.951L333.683 155.696C333.878 155.648 334.083 155.676 334.255 155.776C334.428 155.876 334.555 156.039 334.611 156.231C334.637 156.328 334.643 156.43 334.63 156.53C334.616 156.629 334.583 156.726 334.533 156.813C334.482 156.901 334.415 156.978 334.335 157.039C334.256 157.101 334.165 157.146 334.068 157.172L333.115 157.435C332.903 157.493 332.708 157.6 332.546 157.75C332.384 157.899 332.26 158.085 332.184 158.292C331.568 159.951 330.816 161.557 329.935 163.092C329.051 164.62 328.037 166.068 326.906 167.421C326.762 167.589 326.662 167.79 326.612 168.005C326.563 168.22 326.567 168.444 326.623 168.656L326.877 169.631C326.903 169.728 326.909 169.829 326.895 169.93C326.882 170.03 326.848 170.126 326.798 170.214C326.747 170.301 326.68 170.378 326.6 170.44C326.52 170.501 326.428 170.546 326.331 170.572V170.572Z"
		fill="url(#paint3_linear_884_4857)" />
	<defs>
		<filter id="filter0_f_884_4857" x="0.190674" y="0.0996017" width="520" height="520" filterUnits="userSpaceOnUse"
			color-interpolation-filters="sRGB">
			<feFlood flood-opacity="0" result="BackgroundImageFix" />
			<feBlend mode="normal" in="SourceGraphic" in2="BackgroundImageFix" result="shape" />
			<feGaussianBlur stdDeviation="50" result="effect1_foregroundBlur_884_4857" />
		</filter>
		<linearGradient id="paint0_linear_884_4857" x1="141.672" y1="137.63" x2="376.734" y2="407.26"
			gradientUnits="userSpaceOnUse">
			<stop stop-color="#0043EF" />
			<stop offset="1" stop-color="#AD00FF" />
		</linearGradient>
		<linearGradient id="paint2_linear_884_4857" x1="189.784" y1="327.925" x2="201.895" y2="348.902"
			gradientUnits="userSpaceOnUse">
			<stop stop-color="#F76800" />
			<stop offset="1" stop-color="#F7A600" />
		</linearGradient>
		<linearGradient id="paint3_linear_884_4857" x1="337.733" y1="156.733" x2="328.319" y2="173.04"
			gradientUnits="userSpaceOnUse">
			<stop stop-color="#F76800" />
			<stop offset="1" stop-color="#F7A600" />
		</linearGradient>
	</defs>
</svg>
