<svg width="375" height="520" viewBox="0 0 375 520" fill="none" xmlns="http://www.w3.org/2000/svg">
<g opacity="0.3" filter="url(#filter0_f_309:2558)">
<circle cx="187.5" cy="260" r="160" fill="url(#paint0_linear_309:2558)" fill-opacity="0.7"/>
</g>
<circle cx="187" cy="260" r="68.5" stroke="white" stroke-opacity="0.08"/>
<mask id="mask0_309:2558" style="mask-type:alpha" maskUnits="userSpaceOnUse" x="113" y="209" width="149" height="120">
<path d="M187.115 209C159.521 209 133.951 217.767 113 232.646L125.135 248.427C142.684 236.19 164.039 229 187.115 229C210.19 229 231.545 236.19 249.094 248.427L261.229 232.646C240.278 217.767 214.708 209 187.115 209ZM187.115 242.333C167.162 242.333 148.623 248.536 133.312 259.104L145.5 274.885C157.398 266.957 171.689 262.333 187.115 262.333C202.54 262.333 216.832 266.957 228.729 274.885L240.917 259.104C225.606 248.536 207.067 242.333 187.115 242.333ZM187.115 275.667C174.83 275.667 163.366 279.317 153.729 285.562L165.865 301.396C172.073 297.735 179.338 295.667 187.115 295.667C194.891 295.667 202.157 297.735 208.365 301.396L220.5 285.562C210.863 279.317 199.399 275.667 187.115 275.667ZM187.115 309C182.469 309 178.086 310.155 174.198 312.177L187.115 329L200.031 312.177C196.143 310.155 191.76 309 187.115 309Z" fill="black"/>
</mask>
<g mask="url(#mask0_309:2558)">
<circle cx="188" cy="261" r="86" fill="url(#paint1_linear_309:2558)"/>
</g>
<circle r="1.5" transform="matrix(-1 0 0 1 298.5 160.5)" fill="#50B9A6"/>
<circle cx="253" cy="276" r="2" fill="#F7A600"/>
<circle cx="243" cy="365" r="3" fill="#50B9A6"/>
<circle cx="137" cy="307" r="3" fill="#4D27AB"/>
<circle cx="67.5" cy="255.5" r="1.5" fill="#50B9A6"/>
<circle cx="102.5" cy="175.5" r="1.5" fill="#4D27AB"/>
<circle cx="138" cy="118" r="3" fill="#F7A600"/>
<circle cx="305.5" cy="247.5" r="2.5" fill="#4D27AB"/>
<circle cx="186.5" cy="260" r="149.5" stroke="white" stroke-opacity="0.2"/>
<circle cx="135.5" cy="400.5" r="2.5" fill="#4D27AB"/>
<circle cx="187" cy="260" r="119.5" stroke="white" stroke-opacity="0.16"/>
<path d="M124.776 347.084L123.523 346.739C123.432 346.715 123.349 346.669 123.28 346.604C123.212 346.54 123.16 346.459 123.129 346.37C122.326 344.174 121.335 342.05 120.168 340.023C118.992 337.992 117.648 336.064 116.152 334.258C116.092 334.186 116.051 334.1 116.031 334.008C116.011 333.917 116.014 333.822 116.039 333.732L116.36 332.496C116.5 331.943 116.418 331.355 116.131 330.859C115.844 330.362 115.376 329.997 114.828 329.842C114.277 329.705 113.697 329.786 113.209 330.068C112.72 330.35 112.36 330.812 112.203 331.357L111.891 332.555C111.87 332.643 111.828 332.724 111.769 332.791C111.71 332.858 111.636 332.91 111.553 332.942C108.25 334.251 105.047 335.799 101.969 337.572L101.932 337.593C98.8665 339.364 95.9329 341.355 93.154 343.55C93.0848 343.607 93.003 343.646 92.9154 343.663C92.8278 343.681 92.7371 343.677 92.6509 343.651L91.4716 343.327C90.9206 343.19 90.3407 343.271 89.8521 343.553C89.3634 343.835 89.0035 344.297 88.8468 344.842C88.7054 345.396 88.7874 345.986 89.0749 346.484C89.3625 346.982 89.8323 347.348 90.3824 347.502L91.5943 347.836C91.6857 347.861 91.7699 347.908 91.8398 347.973C91.9097 348.037 91.9632 348.118 91.9957 348.208C92.7745 350.422 93.7567 352.56 94.9293 354.594C96.1027 356.621 97.465 358.533 98.9976 360.303C99.0614 360.374 99.1066 360.46 99.1293 360.553C99.1519 360.646 99.1512 360.743 99.1272 360.835L98.8023 362.083C98.6623 362.636 98.7446 363.224 99.0313 363.72C99.318 364.217 99.7861 364.582 100.334 364.737C100.885 364.874 101.465 364.794 101.954 364.511C102.443 364.229 102.803 363.767 102.959 363.222L103.268 362.038C103.289 361.951 103.331 361.871 103.389 361.804C103.448 361.737 103.522 361.685 103.606 361.654C106.897 360.344 110.088 358.799 113.155 357.029L113.191 357.009C116.263 355.231 119.203 353.232 121.986 351.028C122.056 350.971 122.138 350.933 122.226 350.915C122.314 350.898 122.405 350.902 122.491 350.927L123.685 351.256C124.237 351.407 124.823 351.332 125.315 351.048C125.807 350.764 126.165 350.294 126.31 349.74C126.45 349.188 126.367 348.6 126.081 348.103C125.794 347.607 125.326 347.242 124.778 347.087L124.776 347.084ZM125.177 349.43C125.105 349.677 124.942 349.887 124.72 350.015C124.498 350.143 124.234 350.18 123.984 350.119L122.79 349.79C122.569 349.728 122.339 349.711 122.112 349.739C121.886 349.767 121.667 349.84 121.47 349.954C121.397 349.997 121.326 350.045 121.259 350.097C118.519 352.268 115.625 354.236 112.6 355.986C109.568 357.732 106.415 359.26 103.164 360.557C102.913 360.657 102.689 360.815 102.511 361.018C102.333 361.222 102.204 361.464 102.136 361.728L101.827 362.911C101.755 363.159 101.591 363.368 101.369 363.496C101.147 363.624 100.884 363.662 100.634 363.6C100.509 363.566 100.392 363.508 100.289 363.429C100.187 363.35 100.1 363.251 100.035 363.139C99.9705 363.026 99.9281 362.902 99.9109 362.773C99.8936 362.645 99.9018 362.515 99.9349 362.39L100.259 361.146C100.331 360.868 100.334 360.575 100.267 360.294C100.2 360.013 100.065 359.752 99.8746 359.534C98.3913 357.822 97.0734 355.973 95.9388 354.011C94.8049 352.041 93.8551 349.97 93.1017 347.827C93.0063 347.554 92.8461 347.308 92.6351 347.111C92.4241 346.914 92.1689 346.772 91.8918 346.696L90.6847 346.363C90.5597 346.33 90.4423 346.271 90.3392 346.192C90.2362 346.113 90.1496 346.014 90.0845 345.901C90.0193 345.788 89.9769 345.664 89.9597 345.535C89.9425 345.406 89.9508 345.275 89.9842 345.15C90.0557 344.902 90.2193 344.692 90.4414 344.564C90.6635 344.436 90.927 344.399 91.1774 344.461L92.3567 344.785C92.619 344.858 92.8938 344.868 93.1593 344.815C93.4247 344.762 93.6734 344.647 93.8857 344.48C96.6193 342.318 99.5059 340.358 102.523 338.616L102.559 338.595C105.588 336.85 108.74 335.328 111.99 334.04C112.242 333.94 112.466 333.782 112.645 333.579C112.824 333.375 112.952 333.132 113.02 332.868L113.333 331.67C113.404 331.422 113.568 331.212 113.79 331.084C114.012 330.956 114.275 330.919 114.526 330.981C114.65 331.015 114.767 331.073 114.87 331.152C114.973 331.231 115.059 331.33 115.124 331.442C115.189 331.555 115.231 331.679 115.249 331.807C115.266 331.936 115.258 332.066 115.225 332.191L114.904 333.422C114.832 333.695 114.827 333.981 114.889 334.258C114.951 334.535 115.078 334.793 115.26 335.01C116.712 336.764 118.017 338.635 119.162 340.603C120.295 342.571 121.257 344.632 122.036 346.763C122.131 347.031 122.29 347.272 122.498 347.465C122.706 347.659 122.958 347.798 123.231 347.872L124.479 348.216C124.604 348.25 124.721 348.309 124.824 348.388C124.927 348.468 125.013 348.567 125.078 348.679C125.143 348.792 125.185 348.917 125.202 349.045C125.219 349.174 125.211 349.305 125.177 349.43Z" fill="url(#paint2_linear_309:2558)"/>
<path d="M255.064 169.29L254.809 168.313C254.79 168.243 254.789 168.169 254.805 168.097C254.822 168.026 254.856 167.96 254.904 167.905C256.071 166.511 257.115 165.018 258.026 163.444C258.936 161.863 259.712 160.209 260.346 158.5C260.371 158.432 260.413 158.371 260.467 158.322C260.521 158.273 260.586 158.238 260.656 158.219L261.613 157.955C262.04 157.835 262.403 157.551 262.626 157.165C262.849 156.779 262.913 156.322 262.804 155.893C262.683 155.468 262.403 155.109 262.023 154.89C261.643 154.671 261.192 154.608 260.764 154.715L259.836 154.97C259.769 154.99 259.698 154.993 259.63 154.98C259.562 154.966 259.498 154.936 259.445 154.892C257.279 153.178 254.993 151.623 252.603 150.24L252.574 150.224C250.191 148.848 247.71 147.647 245.152 146.63C245.087 146.605 245.029 146.565 244.983 146.513C244.938 146.461 244.905 146.398 244.889 146.33L244.649 145.41C244.527 144.986 244.247 144.627 243.867 144.408C243.487 144.189 243.037 144.126 242.608 144.232C242.181 144.352 241.816 144.637 241.592 145.024C241.368 145.411 241.305 145.87 241.415 146.3L241.661 147.246C241.679 147.317 241.681 147.392 241.664 147.464C241.648 147.536 241.614 147.603 241.567 147.66C240.379 149.045 239.321 150.537 238.408 152.117C237.499 153.695 236.742 155.355 236.146 157.075C236.123 157.145 236.082 157.209 236.029 157.261C235.975 157.312 235.909 157.349 235.838 157.369L234.871 157.635C234.445 157.756 234.081 158.04 233.858 158.426C233.635 158.812 233.571 159.269 233.68 159.698C233.802 160.122 234.082 160.481 234.462 160.701C234.842 160.92 235.292 160.983 235.721 160.876L236.637 160.624C236.704 160.604 236.775 160.601 236.842 160.615C236.91 160.628 236.974 160.658 237.028 160.702C239.188 162.409 241.469 163.956 243.852 165.333L243.88 165.349C246.271 166.726 248.759 167.928 251.325 168.946C251.39 168.97 251.447 169.011 251.493 169.063C251.539 169.115 251.572 169.178 251.588 169.246L251.831 170.178C251.944 170.608 252.222 170.973 252.604 171.194C252.987 171.415 253.443 171.473 253.872 171.356C254.298 171.235 254.662 170.951 254.884 170.565C255.107 170.179 255.171 169.722 255.062 169.293L255.064 169.29ZM253.641 170.473C253.446 170.52 253.241 170.491 253.069 170.392C252.896 170.292 252.769 170.13 252.713 169.937L252.47 169.006C252.426 168.833 252.348 168.671 252.241 168.529C252.134 168.388 252 168.269 251.847 168.181C251.789 168.148 251.73 168.119 251.668 168.095C249.142 167.093 246.693 165.91 244.339 164.554C241.985 163.191 239.731 161.662 237.594 159.978C237.429 159.848 237.236 159.759 237.03 159.718C236.823 159.677 236.61 159.685 236.406 159.741L235.49 159.993C235.295 160.041 235.09 160.012 234.918 159.912C234.745 159.813 234.618 159.65 234.562 159.458C234.536 159.361 234.53 159.259 234.543 159.159C234.557 159.059 234.59 158.963 234.64 158.876C234.691 158.788 234.758 158.711 234.838 158.65C234.917 158.588 235.008 158.543 235.105 158.517L236.068 158.251C236.284 158.192 236.482 158.08 236.645 157.926C236.808 157.771 236.931 157.579 237.004 157.366C237.58 155.703 238.313 154.097 239.192 152.57C240.078 151.041 241.103 149.597 242.253 148.257C242.4 148.086 242.503 147.883 242.553 147.664C242.604 147.446 242.601 147.219 242.544 147.003L242.299 146.061C242.273 145.964 242.266 145.862 242.28 145.762C242.293 145.662 242.326 145.565 242.377 145.477C242.427 145.389 242.495 145.312 242.575 145.251C242.655 145.189 242.746 145.144 242.843 145.118C243.038 145.069 243.243 145.098 243.415 145.198C243.588 145.297 243.715 145.46 243.771 145.653L244.011 146.573C244.064 146.778 244.164 146.967 244.303 147.125C244.442 147.283 244.616 147.406 244.811 147.484C247.329 148.484 249.77 149.665 252.115 151.019L252.144 151.035C254.495 152.396 256.745 153.926 258.875 155.613C259.04 155.744 259.234 155.834 259.44 155.875C259.647 155.917 259.861 155.908 260.065 155.851L260.993 155.596C261.187 155.548 261.392 155.577 261.565 155.676C261.737 155.776 261.865 155.939 261.92 156.132C261.946 156.229 261.952 156.33 261.939 156.43C261.925 156.53 261.893 156.626 261.842 156.714C261.792 156.801 261.724 156.878 261.645 156.94C261.565 157.001 261.474 157.046 261.377 157.072L260.424 157.335C260.212 157.393 260.017 157.501 259.855 157.65C259.693 157.799 259.569 157.985 259.493 158.192C258.877 159.851 258.125 161.457 257.244 162.993C256.36 164.52 255.347 165.968 254.215 167.321C254.072 167.489 253.971 167.69 253.922 167.905C253.872 168.121 253.876 168.344 253.933 168.557L254.186 169.531C254.212 169.628 254.218 169.73 254.204 169.83C254.191 169.93 254.158 170.027 254.107 170.114C254.056 170.202 253.989 170.278 253.909 170.34C253.829 170.401 253.738 170.447 253.641 170.473Z" fill="url(#paint3_linear_309:2558)"/>
<defs>
<filter id="filter0_f_309:2558" x="-72.5" y="0" width="520" height="520" filterUnits="userSpaceOnUse" color-interpolation-filters="sRGB">
<feFlood flood-opacity="0" result="BackgroundImageFix"/>
<feBlend mode="normal" in="SourceGraphic" in2="BackgroundImageFix" result="shape"/>
<feGaussianBlur stdDeviation="50" result="effect1_foregroundBlur_309:2558"/>
</filter>
<linearGradient id="paint0_linear_309:2558" x1="68.9815" y1="137.531" x2="304.043" y2="407.161" gradientUnits="userSpaceOnUse">
<stop stop-color="#0043EF"/>
<stop offset="1" stop-color="#AD00FF"/>
</linearGradient>
<linearGradient id="paint1_linear_309:2558" x1="129" y1="219" x2="230.5" y2="323" gradientUnits="userSpaceOnUse">
<stop stop-color="#00E8F7"/>
<stop offset="1" stop-color="#9E76FF" stop-opacity="0"/>
</linearGradient>
<linearGradient id="paint2_linear_309:2558" x1="117.093" y1="327.825" x2="129.205" y2="348.802" gradientUnits="userSpaceOnUse">
<stop stop-color="#F76800"/>
<stop offset="1" stop-color="#F7A600"/>
</linearGradient>
<linearGradient id="paint3_linear_309:2558" x1="265.043" y1="156.634" x2="255.628" y2="172.94" gradientUnits="userSpaceOnUse">
<stop stop-color="#F76800"/>
<stop offset="1" stop-color="#F7A600"/>
</linearGradient>
</defs>
</svg>
