<svg width="16" height="17" viewBox="0 0 16 17" fill="none" xmlns="http://www.w3.org/2000/svg">
<path fill-rule="evenodd" clip-rule="evenodd" d="M8.02664 7.83477C6.46762 7.83477 4.95789 8.38116 3.75998 9.37894C3.47707 9.61458 3.0567 9.57627 2.82106 9.29336C2.58542 9.01045 2.62374 8.59008 2.90664 8.35444C4.34414 7.15711 6.15581 6.50144 8.02664 6.50144C9.89748 6.50144 11.7091 7.15711 13.1466 8.35444C13.4296 8.59008 13.4679 9.01045 13.2322 9.29336C12.9966 9.57627 12.5762 9.61458 12.2933 9.37894C11.0954 8.38116 9.58567 7.83477 8.02664 7.83477Z" fill="#F7A600"/>
<path fill-rule="evenodd" clip-rule="evenodd" d="M7.99998 4.50179C5.56516 4.50179 3.21399 5.39011 1.38748 7.00013C1.11127 7.2436 0.689998 7.21706 0.446533 6.94086C0.203067 6.66465 0.229606 6.24338 0.50581 5.99991C2.57586 4.17522 5.24052 3.16846 7.99998 3.16846C10.7594 3.16846 13.4241 4.17522 15.4941 5.99991C15.7703 6.24338 15.7969 6.66465 15.5534 6.94086C15.31 7.21706 14.8887 7.2436 14.6125 7.00013C12.786 5.39011 10.4348 4.50179 7.99998 4.50179Z" fill="#F7A600"/>
<path fill-rule="evenodd" clip-rule="evenodd" d="M8.00331 11.1675C7.31146 11.1675 6.63676 11.3828 6.07275 11.7835C5.7726 11.9967 5.35641 11.9263 5.14317 11.6261C4.92993 11.326 5.00038 10.9098 5.30053 10.6966C6.09013 10.1356 7.03472 9.83419 8.00331 9.83419C8.9719 9.83419 9.91649 10.1356 10.7061 10.6966C11.0062 10.9098 11.0767 11.326 10.8634 11.6261C10.6502 11.9263 10.234 11.9967 9.93386 11.7835C9.36986 11.3828 8.69516 11.1675 8.00331 11.1675Z" fill="#F7A600"/>
<path fill-rule="evenodd" clip-rule="evenodd" d="M7.33331 13.8334C7.33331 13.4652 7.63179 13.1667 7.99998 13.1667H8.00664C8.37483 13.1667 8.67331 13.4652 8.67331 13.8334C8.67331 14.2015 8.37483 14.5 8.00664 14.5H7.99998C7.63179 14.5 7.33331 14.2015 7.33331 13.8334Z" fill="#F7A600"/>
</svg>
