<svg width="375" height="520" viewBox="0 0 375 520" fill="none" xmlns="http://www.w3.org/2000/svg">
	<g opacity="0.3" filter="url(#filter0_f_356:6197)">
		<circle cx="185" cy="260" r="160" fill="url(#paint0_linear_356:6197)" fill-opacity="0.7" />
	</g>
	<circle cx="184.5" cy="260" r="68.5" stroke="white" stroke-opacity="0.08" />
	<circle r="1.5" transform="matrix(-1 0 0 1 296 160.5)" fill="#50B9A6" />
	<circle cx="250.5" cy="276" r="2" fill="#F7A600" />
	<circle cx="240.5" cy="365" r="3" fill="#50B9A6" />
	<circle cx="134.5" cy="307" r="3" fill="#4D27AB" />
	<circle cx="65" cy="255.5" r="1.5" fill="#50B9A6" />
	<circle cx="100" cy="175.5" r="1.5" fill="#4D27AB" />
	<circle cx="135.5" cy="118" r="3" fill="#F7A600" />
	<circle cx="303" cy="247.5" r="2.5" fill="#4D27AB" />
	<circle cx="184" cy="260" r="149.5" stroke="white" stroke-opacity="0.2" />
	<circle cx="133" cy="400.5" r="2.5" fill="#4D27AB" />
	<circle cx="184.5" cy="260" r="119.5" stroke="white" stroke-opacity="0.16" />
	<path
		d="M122.276 369.604L121.023 369.24C120.932 369.214 120.849 369.165 120.78 369.097C120.712 369.029 120.66 368.944 120.629 368.85C119.826 366.528 118.835 364.282 117.668 362.139C116.492 359.992 115.148 357.953 113.652 356.044C113.592 355.967 113.551 355.877 113.531 355.78C113.511 355.683 113.514 355.582 113.539 355.487L113.86 354.181C114 353.597 113.918 352.975 113.631 352.45C113.344 351.925 112.876 351.539 112.328 351.375C111.777 351.23 111.197 351.315 110.709 351.613C110.22 351.912 109.86 352.4 109.703 352.977L109.391 354.244C109.37 354.336 109.328 354.422 109.269 354.493C109.21 354.564 109.136 354.619 109.053 354.652C105.75 356.037 102.547 357.673 99.4687 359.548L99.4324 359.57C96.3665 361.442 93.4329 363.547 90.654 365.869C90.5848 365.928 90.503 365.969 90.4154 365.988C90.3278 366.006 90.2371 366.002 90.1509 365.975L88.9716 365.632C88.4206 365.487 87.8407 365.573 87.3521 365.871C86.8634 366.169 86.5035 366.657 86.3468 367.234C86.2054 367.82 86.2874 368.443 86.5749 368.97C86.8625 369.497 87.3323 369.883 87.8824 370.047L89.0943 370.4C89.1857 370.426 89.2699 370.476 89.3398 370.544C89.4097 370.613 89.4632 370.698 89.4957 370.792C90.2745 373.133 91.2567 375.394 92.4293 377.545C93.6027 379.688 94.965 381.709 96.4976 383.58C96.5614 383.656 96.6066 383.747 96.6293 383.845C96.6519 383.943 96.6512 384.046 96.6272 384.143L96.3023 385.463C96.1623 386.047 96.2446 386.669 96.5313 387.194C96.818 387.719 97.2861 388.105 97.8344 388.269C98.3854 388.414 98.9653 388.329 99.4539 388.03C99.9426 387.732 100.303 387.244 100.459 386.667L100.768 385.416C100.789 385.323 100.831 385.238 100.889 385.167C100.948 385.097 101.022 385.042 101.106 385.009C104.397 383.625 107.588 381.991 110.655 380.12L110.691 380.098C113.763 378.218 116.703 376.105 119.486 373.774C119.556 373.715 119.638 373.674 119.726 373.655C119.814 373.637 119.905 373.641 119.991 373.668L121.185 374.015C121.737 374.175 122.323 374.096 122.815 373.796C123.307 373.496 123.665 372.998 123.81 372.413C123.95 371.829 123.867 371.207 123.581 370.682C123.294 370.157 122.826 369.771 122.278 369.607L122.276 369.604ZM122.677 372.085C122.605 372.346 122.442 372.568 122.22 372.703C121.998 372.839 121.734 372.878 121.484 372.813L120.29 372.466C120.069 372.4 119.839 372.382 119.612 372.411C119.386 372.441 119.167 372.518 118.97 372.639C118.897 372.684 118.826 372.735 118.759 372.79C116.019 375.085 113.125 377.166 110.1 379.017C107.068 380.863 103.915 382.478 100.664 383.849C100.413 383.955 100.189 384.123 100.011 384.337C99.8325 384.552 99.704 384.809 99.6356 385.087L99.3269 386.338C99.2549 386.6 99.0911 386.822 98.8692 386.957C98.6472 387.093 98.384 387.132 98.1336 387.067C98.009 387.031 97.892 386.97 97.7893 386.886C97.6867 386.802 97.6004 386.698 97.5354 386.579C97.4705 386.46 97.4281 386.329 97.4109 386.193C97.3936 386.057 97.4018 385.919 97.4349 385.787L97.7585 384.472C97.8308 384.178 97.8335 383.869 97.7665 383.571C97.6996 383.274 97.5649 382.998 97.3746 382.768C95.8913 380.958 94.5734 379.003 93.4388 376.929C92.3049 374.846 91.3551 372.656 90.6017 370.39C90.5063 370.102 90.3461 369.842 90.1351 369.633C89.9241 369.425 89.6689 369.274 89.3918 369.195L88.1847 368.843C88.0597 368.807 87.9423 368.746 87.8392 368.662C87.7362 368.578 87.6496 368.473 87.5845 368.354C87.5193 368.234 87.4769 368.103 87.4597 367.967C87.4425 367.83 87.4508 367.692 87.4842 367.56C87.5557 367.298 87.7193 367.076 87.9414 366.94C88.1635 366.805 88.427 366.766 88.6774 366.831L89.8567 367.174C90.119 367.251 90.3938 367.262 90.6593 367.206C90.9247 367.15 91.1734 367.028 91.3857 366.851C94.1193 364.566 97.0059 362.494 100.023 360.651L100.059 360.629C103.088 358.784 106.24 357.175 109.49 355.813C109.742 355.708 109.966 355.541 110.145 355.326C110.324 355.11 110.452 354.853 110.52 354.574L110.833 353.307C110.904 353.045 111.068 352.823 111.29 352.688C111.512 352.552 111.775 352.513 112.026 352.579C112.15 352.615 112.267 352.676 112.37 352.76C112.473 352.843 112.559 352.948 112.624 353.067C112.689 353.186 112.731 353.317 112.749 353.453C112.766 353.589 112.758 353.727 112.725 353.858L112.404 355.16C112.332 355.448 112.327 355.751 112.389 356.044C112.451 356.336 112.578 356.609 112.76 356.839C114.212 358.693 115.517 360.671 116.662 362.753C117.795 364.833 118.757 367.012 119.536 369.265C119.631 369.548 119.79 369.803 119.998 370.008C120.206 370.212 120.458 370.36 120.731 370.438L121.979 370.802C122.104 370.838 122.221 370.899 122.324 370.983C122.427 371.067 122.513 371.172 122.578 371.291C122.643 371.411 122.685 371.542 122.702 371.678C122.719 371.815 122.711 371.953 122.677 372.085Z"
		fill="url(#paint1_linear_356:6197)" />
	<path
		d="M252.564 181.625L252.309 180.591C252.29 180.517 252.289 180.439 252.305 180.363C252.322 180.288 252.356 180.218 252.404 180.16C253.571 178.686 254.615 177.108 255.526 175.443C256.436 173.772 257.212 172.024 257.846 170.216C257.872 170.144 257.913 170.079 257.967 170.028C258.021 169.976 258.086 169.939 258.156 169.919L259.113 169.64C259.54 169.513 259.904 169.213 260.126 168.805C260.349 168.397 260.413 167.913 260.304 167.459C260.183 167.011 259.903 166.631 259.523 166.4C259.143 166.168 258.692 166.101 258.264 166.214L257.336 166.484C257.269 166.505 257.199 166.508 257.13 166.494C257.062 166.48 256.998 166.448 256.945 166.402C254.779 164.589 252.493 162.945 250.103 161.483L250.074 161.466C247.691 160.012 245.21 158.742 242.652 157.666C242.587 157.64 242.529 157.598 242.484 157.543C242.438 157.487 242.405 157.421 242.389 157.349L242.149 156.377C242.027 155.928 241.747 155.549 241.367 155.317C240.987 155.085 240.537 155.019 240.108 155.131C239.681 155.258 239.316 155.559 239.092 155.968C238.869 156.378 238.805 156.862 238.915 157.317L239.161 158.317C239.179 158.392 239.181 158.472 239.164 158.548C239.148 158.624 239.114 158.695 239.067 158.755C237.879 160.22 236.821 161.797 235.908 163.468C234.999 165.136 234.242 166.891 233.646 168.709C233.623 168.784 233.582 168.852 233.529 168.906C233.475 168.96 233.409 168.999 233.338 169.02L232.371 169.302C231.945 169.429 231.581 169.73 231.358 170.138C231.135 170.546 231.071 171.029 231.18 171.483C231.302 171.932 231.582 172.311 231.962 172.543C232.342 172.775 232.792 172.841 233.221 172.728L234.137 172.462C234.204 172.441 234.275 172.438 234.343 172.452C234.41 172.466 234.474 172.498 234.528 172.544C236.688 174.349 238.969 175.985 241.352 177.441L241.38 177.458C243.771 178.914 246.259 180.185 248.825 181.26C248.89 181.287 248.948 181.329 248.993 181.385C249.039 181.44 249.072 181.506 249.088 181.578L249.331 182.563C249.444 183.018 249.722 183.404 250.104 183.638C250.487 183.871 250.943 183.933 251.372 183.808C251.798 183.681 252.162 183.381 252.385 182.973C252.607 182.565 252.671 182.081 252.563 181.627L252.564 181.625ZM251.141 182.875C250.946 182.925 250.741 182.895 250.569 182.789C250.396 182.684 250.269 182.512 250.213 182.309L249.97 181.324C249.926 181.141 249.848 180.97 249.741 180.82C249.634 180.67 249.5 180.545 249.347 180.451C249.289 180.417 249.23 180.386 249.168 180.36C246.642 179.302 244.193 178.051 241.839 176.617C239.485 175.176 237.231 173.56 235.094 171.779C234.929 171.642 234.736 171.548 234.53 171.504C234.323 171.461 234.11 171.469 233.906 171.528L232.99 171.795C232.795 171.845 232.59 171.815 232.418 171.71C232.245 171.604 232.118 171.432 232.062 171.229C232.036 171.126 232.03 171.019 232.043 170.913C232.057 170.808 232.09 170.706 232.14 170.613C232.191 170.521 232.258 170.44 232.338 170.375C232.417 170.31 232.508 170.262 232.605 170.234L233.568 169.953C233.784 169.89 233.982 169.772 234.145 169.609C234.308 169.446 234.431 169.243 234.504 169.018C235.08 167.259 235.813 165.56 236.692 163.947C237.578 162.33 238.603 160.803 239.753 159.386C239.9 159.206 240.003 158.991 240.053 158.76C240.104 158.529 240.101 158.289 240.044 158.06L239.799 157.064C239.773 156.962 239.766 156.854 239.78 156.748C239.793 156.642 239.826 156.54 239.877 156.447C239.927 156.354 239.995 156.273 240.075 156.208C240.155 156.143 240.246 156.095 240.343 156.067C240.538 156.016 240.743 156.047 240.915 156.152C241.088 156.257 241.215 156.43 241.271 156.633L241.511 157.606C241.564 157.823 241.664 158.022 241.803 158.19C241.942 158.357 242.116 158.487 242.311 158.569C244.829 159.626 247.27 160.875 249.615 162.307L249.644 162.324C251.995 163.763 254.245 165.38 256.376 167.164C256.54 167.303 256.734 167.397 256.94 167.441C257.147 167.485 257.361 167.476 257.565 167.416L258.493 167.146C258.687 167.095 258.892 167.125 259.065 167.231C259.237 167.336 259.365 167.509 259.42 167.712C259.446 167.815 259.452 167.922 259.439 168.028C259.426 168.133 259.393 168.235 259.342 168.328C259.292 168.42 259.225 168.501 259.145 168.566C259.065 168.631 258.974 168.679 258.877 168.707L257.924 168.985C257.712 169.046 257.517 169.16 257.355 169.318C257.193 169.475 257.069 169.672 256.993 169.891C256.377 171.645 255.625 173.343 254.744 174.966C253.861 176.581 252.847 178.112 251.715 179.543C251.572 179.721 251.471 179.933 251.422 180.161C251.372 180.388 251.376 180.625 251.433 180.849L251.686 181.879C251.712 181.982 251.718 182.09 251.705 182.195C251.691 182.301 251.658 182.403 251.607 182.496C251.556 182.588 251.489 182.669 251.409 182.735C251.329 182.8 251.238 182.847 251.141 182.875Z"
		fill="url(#paint2_linear_356:6197)" />
	
	
	<defs>
		<filter id="filter0_f_356:6197" x="-75" y="0" width="520" height="520" filterUnits="userSpaceOnUse"
			color-interpolation-filters="sRGB">
			<feFlood flood-opacity="0" result="BackgroundImageFix" />
			<feBlend mode="normal" in="SourceGraphic" in2="BackgroundImageFix" result="shape" />
			<feGaussianBlur stdDeviation="50" result="effect1_foregroundBlur_356:6197" />
		</filter>
		<linearGradient id="paint0_linear_356:6197" x1="66.4815" y1="137.531" x2="301.543" y2="407.161"
			gradientUnits="userSpaceOnUse">
			<stop stop-color="#0043EF" />
			<stop offset="1" stop-color="#AD00FF" />
		</linearGradient>
		<linearGradient id="paint1_linear_356:6197" x1="114.593" y1="349.242" x2="127.745" y2="370.787"
			gradientUnits="userSpaceOnUse">
			<stop stop-color="#F76800" />
			<stop offset="1" stop-color="#F7A600" />
		</linearGradient>
		<linearGradient id="paint2_linear_356:6197" x1="262.543" y1="168.243" x2="252.32" y2="184.99"
			gradientUnits="userSpaceOnUse">
			<stop stop-color="#F76800" />
			<stop offset="1" stop-color="#F7A600" />
		</linearGradient>
		<clipPath id="clip0_356:6197">
			<rect width="16" height="16" fill="white" transform="translate(115.5 267.5)" />
		</clipPath>
	</defs>
</svg>
